Mada-Black.sfdir
StartChar: uni0621
Encoding: 1569 1569 90
Width: 571
VWidth: -36
GlyphClass: 2
Flags: HW
LayerCount: 3
Fore
SplineSet
451.248046875 362.716796875 m 1
 451.248046875 190.716796875 l 1
 382.479492188 190.716796875 l 1
 401.431640625 150.530273438 l 2
 407.552734375 135.681640625 432.41015625 93.9697265625 403.169921875 48.5546875 c 0
 377.654296875 8.9208984375 321.265625 -0.5419921875 309.25390625 -0.2451171875 c 2
 120 -0.2451171875 l 1
 120 171.754882812 l 1
 201.252929688 171.754882812 l 1
 182.98046875 210.504882812 l 2
 182.98046875 210.504882812 141.48828125 280.076171875 187.857421875 327.890625 c 0
 205.103515625 345.670898438 238.044921875 362.716796875 279.5 362.716796875 c 2
 451.248046875 362.716796875 l 1
EndSplineSet
Layer: 2
Refer: 88 -1 N 1 0 0 1 350 493 2
Refer: 69 -1 N 1 0 0 1 350 493 2
Refer: 67 -1 N 1 0 0 1 350 493 2
Refer: 112 1618 N 1 0 0 1 350 541 2
Refer: 109 1615 N 1 0 0 1 350 536 2
Refer: 106 1612 N 1 0 0 1 350 534 2
Refer: 74 -1 N 1 0 0 1 240 -120 2
Refer: 72 -1 N 1 0 0 1 240 -120 2
Refer: 114 1622 N 1 0 0 1 240 -120 2
Refer: 107 1613 N 1 0 0 1 240 -155 2
Refer: 110 1616 N 1 0 0 1 240 -145 2
Refer: 71 -1 N 1 0 0 1 240 -120 2
Refer: 73 -1 N 1 0 0 1 240 -120 2
Refer: 105 1611 N 1 0 0 1 350 538 2
Refer: 108 1614 N 1 0 0 1 350 518 2
Refer: 111 1617 N 1 0 0 1 350 537 2
Refer: 113 1648 N 1 0 0 1 350 493 2
Refer: 68 -1 N 1 0 0 1 350 493 2
Refer: 70 -1 N 1 0 0 1 350 493 2
EndChar
StartChar: uni0640
Encoding: 1600 1600 121
Width: 280
VWidth: 34
Flags: HW
LayerCount: 3
Fore
SplineSet
285 0 m 9
 -5 0 l 17
 -5 172 l 9
 285 172 l 1
 285 0 l 9
EndSplineSet
EndChar
StartChar: uni064B
Encoding: 1611 1611 105
Width: 0
VWidth: -44
GlyphClass: 4
Flags: HW
LayerCount: 3
Fore
Refer: 108 1614 N 1 0 0 1 0 0 2
Refer: 108 1614 N 1 0 0 1 0 120 2
Layer: 2
SplineSet
-135 121 m 0
 -143 141 -132 161 -112 169 c 0
 87 241 l 0
 107 249 127 240 135 220 c 0
 143 200 132 180 112 172 c 0
 -87 98 l 0
 -107 90 -127 101 -135 121 c 0
-135 1 m 0
 -143 21 -132 41 -112 49 c 0
 87 121 l 0
 107 129 127 120 135 100 c 0
 143 80 132 60 112 52 c 0
 -87 -22 l 0
 -107 -30 -127 -19 -135 1 c 0
EndSplineSet
EndChar
StartChar: uni064D
Encoding: 1613 1613 165
Width: 0
VWidth: 34
GlyphClass: 4
Flags: HW
AnchorPoint: "arMarkBelowDot" 0 35 mark 0
LayerCount: 3
Fore
Refer: 163 1611 N 1 0 0 1 0 -268 2
Layer: 2
SplineSet
-135 -267 m 0
 -143 -247 -132 -227 -112 -219 c 0
 87 -147 l 0
 107 -139 127 -148 135 -168 c 0
 143 -188 132 -208 112 -216 c 0
 -87 -290 l 0
 -107 -298 -127 -287 -135 -267 c 0
-135 -147 m 0
 -143 -127 -132 -107 -112 -99 c 0
 87 -27 l 0
 107 -19 127 -28 135 -48 c 0
 143 -68 132 -88 112 -96 c 0
 -87 -170 l 0
 -107 -178 -127 -167 -135 -147 c 0
EndSplineSet
EndChar
StartChar: uni064E
Encoding: 1614 1614 166
Width: 0
VWidth: -24
GlyphClass: 4
Flags: HW
LayerCount: 3
Fore
SplineSet
-135 1 m 0
 -143 21 -132 41 -112 49 c 0
 87 121 l 0
 107 129 127 120 135 100 c 0
 143 80 132 60 112 52 c 0
 -87 -22 l 0
 -107 -30 -127 -19 -135 1 c 0
EndSplineSet
Layer: 2
SplineSet
-135 1 m 0
 -143 21 -132 41 -112 49 c 0
 87 121 l 0
 107 129 127 120 135 100 c 0
 143 80 132 60 112 52 c 0
 -87 -22 l 0
 -107 -30 -127 -19 -135 1 c 0
EndSplineSet
EndChar
StartChar: uni064F
Encoding: 1615 1615 110
Width: 0
VWidth: -42
GlyphClass: 4
Flags: HW
LayerCount: 3
Back
SplineSet
-8.806640625 53.4638671875 m 1
 -20.86328125 86.587890625 l 1
 -25.84375 101.00390625 -18.03125 116.0859375 -5.55859375 119.827148438 c 1
 38.095703125 131.458984375 71.5185546875 77.64453125 35.3388671875 64.4755859375 c 2
 -76.0146484375 23.947265625 l 2
EndSplineSet
Fore
SplineSet
-51 56 m 1
 -64 95 l 1
 -80 143 -58 193 -10 208 c 1
 62 228 121 184 141 134 c 0
 149 114 150 92 140 70 c 0
 131 50 114 37 93 29 c 0
 -97 -40 l 0
 -116 -48 -137 -37 -145 -17 c 0
 -153 3 -143 23 -123 31 c 0
 -51 56 l 1
20 82 m 1
 68 100 l 0
 71 102 72 103 72 103 c 1
 72 107 59 134 29 137 c 1
 17 137 0 137 6 119 c 6
 20 82 l 1
EndSplineSet
Layer: 2
SplineSet
-51 56 m 1
 -64 95 l 1
 -80 143 -58 193 -10 208 c 1
 62 228 121 184 141 134 c 0
 149 114 150 92 140 70 c 0
 131 50 114 37 93 29 c 0
 -97 -40 l 0
 -116 -48 -137 -37 -145 -17 c 0
 -153 3 -143 23 -123 31 c 0
 -51 56 l 1
20 82 m 1
 68 100 l 0
 71 102 72 103 72 103 c 1
 72 107 59 134 29 137 c 1
 17 137 0 137 6 119 c 6
 20 82 l 1
EndSplineSet
EndChar
StartChar: uni0650
Encoding: 1616 1616 110
Width: 0
VWidth: 24
GlyphClass: 4
Flags: HW
LayerCount: 3
Fore
Refer: 108 1614 N 1 0 0 1 0 -148 2
Layer: 2
SplineSet
-135 -147 m 0
 -143 -127 -132 -107 -112 -99 c 0
 87 -27 l 0
 107 -19 127 -28 135 -48 c 0
 143 -68 132 -88 112 -96 c 0
 -87 -170 l 0
 -107 -178 -127 -167 -135 -147 c 0
EndSplineSet
EndChar
StartChar: uni0651
Encoding: 1617 1617 112
Width: 0
VWidth: -43
GlyphClass: 4
Flags: HW
LayerCount: 3
Back
SplineSet
-48 18 m 2
 -62 14 -65 24.00390625 -65 32 c 2
 -65 98 l 1
-47.7358462676 17.9760532151 m 1
 -13 30 l 2
 -6 32 0 38 0 45 c 2
 0 111 l 1
28 45 m 1
 54 54 l 2
 61.1953125 56.490234375 67 62 67 69 c 2
 67 135 l 1
EndSplineSet
Fore
SplineSet
-52 6 m 0
 -46 -14 -58 -35 -78 -41 c 0
 -98 -47 -123 -44 -138 -26 c 0
 -152 -11 -152 6 -152 16 c 0
 -152 120 l 0
 -152 141 -135 157 -114 157 c 0
 -93 157 -76 141 -76 120 c 0
 -76 31 l 1
 -67 28 -55 18 -52 6 c 0
-123 -17 m 0
 -129 3 -119 25 -99 31 c 0
 -39 51 l 1
 -39 139 l 0
 -39 160 -23 177 -2 177 c 0
 19 177 36 160 36 139 c 0
 36 40 l 0
 36 6 9 -12 -9 -18 c 0
 -75 -41 l 0
 -95 -47 -117 -37 -123 -17 c 0
4 28 m 0
 -4 48 8 68 28 76 c 0
 76 93 l 1
 76 181 l 0
 76 202 93 219 114 219 c 0
 135 219 152 202 152 181 c 0
 152 82 l 0
 152 49 124 30 106 24 c 1
 52 4 l 0
 32 -4 12 8 4 28 c 0
EndSplineSet
Layer: 2
SplineSet
-52 6 m 0
 -46 -14 -58 -35 -78 -41 c 0
 -98 -47 -123 -44 -138 -26 c 0
 -152 -11 -152 6 -152 16 c 0
 -152 120 l 0
 -152 141 -135 157 -114 157 c 0
 -93 157 -76 141 -76 120 c 0
 -76 31 l 1
 -67 28 -55 18 -52 6 c 0
-123 -17 m 0
 -129 3 -119 25 -99 31 c 0
 -39 51 l 1
 -39 139 l 0
 -39 160 -23 177 -2 177 c 0
 19 177 36 160 36 139 c 0
 36 40 l 0
 36 6 9 -12 -9 -18 c 0
 -75 -41 l 0
 -95 -47 -117 -37 -123 -17 c 0
4 28 m 0
 -4 48 8 68 28 76 c 0
 76 93 l 1
 76 181 l 0
 76 202 93 219 114 219 c 0
 135 219 152 202 152 181 c 0
 152 82 l 0
 152 49 124 30 106 24 c 1
 52 4 l 0
 32 -4 12 8 4 28 c 0
EndSplineSet
EndChar
StartChar: uni0652
Encoding: 1618 1618 113
Width: 0
VWidth: 944
GlyphClass: 4
Flags: HW
LayerCount: 3
Fore
SplineSet
-69 97 m 0
 -69 58 -39 27 0 27 c 0
 39 27 69 58 69 97 c 0
 69 136 39 166 0 166 c 0
 -39 166 -69 136 -69 97 c 0
-144 97 m 0
 -144 177 -80 241 0 241 c 0
 80 241 144 177 144 97 c 0
 144 17 80 -48 0 -48 c 0
 -80 -48 -144 17 -144 97 c 0
EndSplineSet
Layer: 2
SplineSet
-69 97 m 0
 -69 58 -39 27 0 27 c 0
 39 27 69 58 69 97 c 0
 69 136 39 166 0 166 c 0
 -39 166 -69 136 -69 97 c 0
-144 97 m 0
 -144 177 -80 241 0 241 c 0
 80 241 144 177 144 97 c 0
 144 17 80 -48 0 -48 c 0
 -80 -48 -144 17 -144 97 c 0
EndSplineSet
EndChar
StartChar: uni0653
Encoding: 1619 1619 127
Width: 0
VWidth: 0
GlyphClass: 4
Flags: HW
LayerCount: 3
Fore
SplineSet
-89 0 m 1
 -189 0 l 1
 -189 53 l 2
 -189 102 -148 140 -100 140 c 2
 139 140 l 1
 139 40 l 1
 -109 40 l 1
 -89 60 l 1
 -89 0 l 1
EndSplineSet
Layer: 2
SplineSet
-89 0 m 1
 -189 0 l 1
 -189 53 l 2
 -189 102 -148 140 -100 140 c 2
 139 140 l 1
 139 40 l 1
 -109 40 l 1
 -89 60 l 1
 -89 0 l 1
EndSplineSet
EndChar
StartChar: uni0654
Encoding: 1620 1620 92
Width: 0
VWidth: 0
GlyphClass: 4
Flags: HW
LayerCount: 3
Fore
Refer: 75 -1 N 1 0 0 1 0 0 2
Layer: 2
SplineSet
96 212 m 1
 96 112 l 1
 56 112 l 1
 67 88 l 2
 71 79 85 55 68 29 c 0
 53 6 21 1 14 1 c 2
 -96 1 l 1
 -96 101 l 1
 -49 101 l 1
 -60 123 l 2
 -60 123 -84 164 -57 192 c 0
 -47 202 -28 212 -4 212 c 2
 96 212 l 1
EndSplineSet
Refer: 113 1648 N 1 0 0 1 0 260 2
Refer: 111 1617 N 1 0 0 1 0 304 2
Refer: 108 1614 N 1 0 0 1 0 285 2
Refer: 105 1611 N 1 0 0 1 0 305 2
Refer: 106 1612 N 1 0 0 1 0 301 2
Refer: 109 1615 N 1 0 0 1 0 303 2
Refer: 112 1618 N 1 0 0 1 0 308 2
EndChar
StartChar: uni0655
Encoding: 1621 1621 93
Width: 0
VWidth: 0
GlyphClass: 4
Flags: HW
LayerCount: 3
Fore
Refer: 75 -1 N 1 0 0 1 0 -211 2
Layer: 2
SplineSet
96 1 m 1
 96 -99 l 1
 56 -99 l 1
 67 -123 l 2
 71 -132 85 -156 68 -182 c 0
 53 -205 21 -210 14 -210 c 2
 -96 -210 l 1
 -96 -110 l 1
 -49 -110 l 1
 -60 -88 l 2
 -60 -88 -84 -47 -57 -19 c 0
 -47 -9 -28 1 -4 1 c 2
 96 1 l 1
EndSplineSet
Refer: 114 1622 N 1 0 0 1 0 -260 2
Refer: 107 1613 N 1 0 0 1 0 -295 2
Refer: 110 1616 N 1 0 0 1 0 -285 2
EndChar
StartChar: uni0656
Encoding: 1622 1622 172
Width: 0
VWidth: -36
GlyphClass: 4
Flags: HW
AnchorPoint: "arMarkBelowDot" 0 0 mark 0
LayerCount: 3
Fore
Refer: 171 1648 N 1 0 0 1 0 -184 2
Layer: 2
SplineSet
22 0 m 9
 22 -141 l 2
 22 -164 13 -184 -22 -184 c 1
 -22 0 l 17
 22 0 l 9
EndSplineSet
EndChar
StartChar: uni0661
Encoding: 1633 1633 15
Width: 472
VWidth: 0
GlyphClass: 2
Flags: HW
LayerCount: 3
Fore
SplineSet
150 624 m 1
 322 624 l 1
 322 0 l 1
 150 0 l 1
 150 624 l 1
EndSplineSet
EndChar
StartChar: uni0662
Encoding: 1634 1634 16
Width: 492
VWidth: 0
GlyphClass: 2
Flags: HW
LayerCount: 3
Fore
SplineSet
262 0 m 1
 90 0 l 1
 90 486 l 2
 90 562 153 624 229 624 c 2
 402 624 l 1
 402 452 l 1
 242 452 l 1
 262 472 l 1
 262 0 l 1
EndSplineSet
EndChar
StartChar: uni0663
Encoding: 1635 1635 17
Width: 780
VWidth: 0
GlyphClass: 2
Flags: HW
LayerCount: 3
Fore
SplineSet
304 624 m 1
 476 624 l 1
 476 441 l 2
 476 365 413 303 337 303 c 2
 225 303 l 1
 225 475 l 1
 324 475 l 1
 304 455 l 1
 304 624 l 1
518 624 m 1
 690 624 l 1
 690 441 l 2
 690 365 627 303 551 303 c 2
 459 303 l 1
 459 475 l 1
 538 475 l 1
 518 455 l 1
 518 624 l 1
90 624 m 1
 262 624 l 1
 262 0 l 1
 90 0 l 1
 90 624 l 1
EndSplineSet
EndChar
StartChar: uni0667
Encoding: 1639 1639 21
Width: 733
VWidth: 34
GlyphClass: 2
Flags: HW
LayerCount: 3
Fore
SplineSet
477 674 m 1
 643 630 l 1
 491 49 l 2
 479 3 437 -27 387 -28 c 0
 338 -29 293 -9 276 45 c 2
 90 626 l 1
 254 678 l 1
 392 247 l 1
 365 247 l 1
 477 674 l 1
EndSplineSet
EndChar
StartChar: uni0670
Encoding: 1648 1648 171
Width: 0
VWidth: -36
GlyphClass: 4
Flags: HW
LayerCount: 3
Fore
SplineSet
22 184 m 9
 22 43 l 2
 22 20 13 0 -22 0 c 1
 -22 184 l 17
 22 184 l 9
EndSplineSet
Layer: 2
SplineSet
22 184 m 9
 22 43 l 2
 22 20 13 0 -22 0 c 1
 -22 184 l 17
 22 184 l 9
EndSplineSet
EndChar
StartChar: ar1Dot.above
Encoding: 65588 -1 68
Width: 0
VWidth: 0
GlyphClass: 4
Flags: HW
LayerCount: 3
Fore
SplineSet
-86 0 m 0
 -86 47 -47 86 0 86 c 0
 47 86 86 47 86 0 c 0
 86 -47 47 -86 0 -86 c 0
 -47 -86 -86 -47 -86 0 c 0
EndSplineSet
Layer: 2
SplineSet
-86 0 m 0
 -86 47 -47 86 0 86 c 0
 47 86 86 47 86 0 c 0
 86 -47 47 -86 0 -86 c 0
 -47 -86 -86 -47 -86 0 c 0
EndSplineSet
Refer: 114 1648 N 1 0 0 1 0 170 2
Refer: 112 1617 N 1 0 0 1 0 214 2
Refer: 109 1614 N 1 0 0 1 0 195 2
Refer: 106 1611 N 1 0 0 1 0 215 2
Refer: 107 1612 N 1 0 0 1 0 211 2
Refer: 110 1615 N 1 0 0 1 0 213 2
Refer: 113 1618 N 1 0 0 1 0 218 2
EndChar
StartChar: ar1Dot.below
Encoding: 65592 -1 72
Width: 0
VWidth: 0
GlyphClass: 4
Flags: HW
AnchorPoint: "arMarkBelowDot" 0 -160 basemark 0
LayerCount: 3
Fore
Refer: 68 -1 N 1 0 0 1 0 0 2
Layer: 2
SplineSet
-86 0 m 0
 -86 47 -47 86 0 86 c 0
 47 86 86 47 86 0 c 0
 86 -47 47 -86 0 -86 c 0
 -47 -86 -86 -47 -86 0 c 0
EndSplineSet
EndChar
StartChar: ar2Dot.above
Encoding: 65589 -1 69
Width: 0
VWidth: 0
GlyphClass: 4
Flags: HW
AnchorPoint: "arMarkAboveDot" 0 170 basemark 0
LayerCount: 3
Fore
Refer: 68 -1 N 1 0 0 1 -120 0 2
Refer: 68 -1 N 1 0 0 1 120 0 2
Layer: 2
SplineSet
34 0 m 0
 34 47 73 86 120 86 c 0
 167 86 206 47 206 0 c 0
 206 -47 167 -86 120 -86 c 0
 73 -86 34 -47 34 0 c 0
-206 0 m 0
 -206 47 -167 86 -120 86 c 0
 -73 86 -34 47 -34 0 c 0
 -34 -47 -73 -86 -120 -86 c 0
 -167 -86 -206 -47 -206 0 c 0
EndSplineSet
EndChar
StartChar: ar2Dot.below
Encoding: 65593 -1 73
Width: 0
VWidth: 0
GlyphClass: 4
Flags: HW
LayerCount: 3
Fore
Refer: 69 -1 N 1 0 0 1 0 0 2
Layer: 2
SplineSet
-206 0 m 0
 -206 47 -167 86 -120 86 c 0
 -73 86 -34 47 -34 0 c 0
 -34 -47 -73 -86 -120 -86 c 0
 -167 -86 -206 -47 -206 0 c 0
34 0 m 0
 34 47 73 86 120 86 c 0
 167 86 206 47 206 0 c 0
 206 -47 167 -86 120 -86 c 0
 73 -86 34 -47 34 0 c 0
EndSplineSet
Refer: 115 1622 N 1 0 0 1 0 -170 2
Refer: 108 1613 N 1 0 0 1 0 -205 2
Refer: 111 1616 N 1 0 0 1 0 -195 2
EndChar
StartChar: ar3Dot.above
Encoding: 65590 -1 70
Width: 0
VWidth: 0
GlyphClass: 4
Flags: HW
LayerCount: 3
Fore
Refer: 69 -1 N 1 0 0 1 0 0 2
Refer: 68 -1 N 1 0 0 1 0 170 2
Layer: 2
SplineSet
-86 170 m 0
 -86 217 -47 256 0 256 c 0
 47 256 86 217 86 170 c 0
 86 123 47 84 0 84 c 0
 -47 84 -86 123 -86 170 c 0
-206 0 m 0
 -206 47 -167 86 -120 86 c 0
 -73 86 -34 47 -34 0 c 0
 -34 -47 -73 -86 -120 -86 c 0
 -167 -86 -206 -47 -206 0 c 0
34 0 m 0
 34 47 73 86 120 86 c 0
 167 86 206 47 206 0 c 0
 206 -47 167 -86 120 -86 c 0
 73 -86 34 -47 34 0 c 0
EndSplineSet
Refer: 114 1648 N 1 0 0 1 0 340 2
Refer: 112 1617 N 1 0 0 1 0 384 2
Refer: 109 1614 N 1 0 0 1 0 365 2
Refer: 106 1611 N 1 0 0 1 0 385 2
Refer: 107 1612 N 1 0 0 1 0 381 2
Refer: 110 1615 N 1 0 0 1 0 383 2
Refer: 113 1618 N 1 0 0 1 0 388 2
EndChar
StartChar: ar3Dot.below
Encoding: 65594 -1 73
Width: 0
VWidth: 0
GlyphClass: 4
Flags: HW
LayerCount: 3
Fore
Refer: 69 -1 N 1 0 0 1 0 -170 2
Layer: 2
SplineSet
-206 -170 m 0
 -206 -123 -167 -84 -120 -84 c 0
 -73 -84 -34 -123 -34 -170 c 0
 -34 -217 -73 -256 -120 -256 c 0
 -167 -256 -206 -217 -206 -170 c 0
34 -170 m 0
 34 -123 73 -84 120 -84 c 0
 167 -84 206 -123 206 -170 c 0
 206 -217 167 -256 120 -256 c 0
 73 -256 34 -217 34 -170 c 0
-86 0 m 0
 -86 47 -47 86 0 86 c 0
 47 86 86 47 86 0 c 0
 86 -47 47 -86 0 -86 c 0
 -47 -86 -86 -47 -86 0 c 0
EndSplineSet
Refer: 114 1622 N 1 0 0 1 0 -330 2
Refer: 107 1613 N 1 0 0 1 0 -365 2
Refer: 110 1616 N 1 0 0 1 0 -355 2
EndChar
StartChar: ar3IDot.above
Encoding: 65591 -1 71
Width: 0
VWidth: 0
GlyphClass: 4
Flags: HW
LayerCount: 3
Fore
Refer: 68 -1 N 1 0 0 1 0 0 2
Refer: 69 -1 N 1 0 0 1 0 170 2
Layer: 2
SplineSet
-206 170 m 0
 -206 217 -167 256 -120 256 c 0
 -73 256 -34 217 -34 170 c 0
 -34 123 -73 84 -120 84 c 0
 -167 84 -206 123 -206 170 c 0
34 170 m 0
 34 217 73 256 120 256 c 0
 167 256 206 217 206 170 c 0
 206 123 167 84 120 84 c 0
 73 84 34 123 34 170 c 0
-86 0 m 0
 -86 47 -47 86 0 86 c 0
 47 86 86 47 86 0 c 0
 86 -47 47 -86 0 -86 c 0
 -47 -86 -86 -47 -86 0 c 0
EndSplineSet
Refer: 114 1648 N 1 0 0 1 0 340 2
Refer: 112 1617 N 1 0 0 1 0 384 2
Refer: 109 1614 N 1 0 0 1 0 365 2
Refer: 106 1611 N 1 0 0 1 0 385 2
Refer: 107 1612 N 1 0 0 1 0 381 2
Refer: 110 1615 N 1 0 0 1 0 383 2
Refer: 113 1618 N 1 0 0 1 0 388 2
EndChar
StartChar: ar3IDot.below
Encoding: 65595 -1 75
Width: 0
VWidth: 0
GlyphClass: 4
Flags: HW
AnchorPoint: "arMarkBelowDot" 0 -330 basemark 0
LayerCount: 3
Fore
Refer: 71 -1 N 1 0 0 1 0 -170 2
Layer: 2
SplineSet
-86 -170 m 0
 -86 -123 -47 -84 0 -84 c 0
 47 -84 86 -123 86 -170 c 0
 86 -217 47 -256 0 -256 c 0
 -47 -256 -86 -217 -86 -170 c 0
-206 0 m 0
 -206 47 -167 86 -120 86 c 0
 -73 86 -34 47 -34 0 c 0
 -34 -47 -73 -86 -120 -86 c 0
 -167 -86 -206 -47 -206 0 c 0
34 0 m 0
 34 47 73 86 120 86 c 0
 167 86 206 47 206 0 c 0
 206 -47 167 -86 120 -86 c 0
 73 -86 34 -47 34 0 c 0
EndSplineSet
Refer: 172 1622 N 1 0 0 1 0 -330 2
Refer: 165 1613 N 1 0 0 1 0 -365 2
Refer: 168 1616 N 1 0 0 1 0 -355 2
EndChar
StartChar: arAin.init
Encoding: 65567 -1 40
Width: 548
VWidth: 34
GlyphClass: 2
Flags: HW
LayerCount: 3
Fore
SplineSet
0 0 m 1
 0 172 l 1
 488 172 l 1
 488 0 l 1
 0 0 l 1
463 462 m 1
 413 298 l 1
 318 327 258 319 242 312 c 1
 244 296 268 245 339 180 c 1
 223 54 l 1
 104 164 6 313 113 428 c 0
 193 514 327 503 463 462 c 1
EndSplineSet
Layer: 2
Refer: 74 -1 N 1 0 0 1 274 -150 2
Refer: 72 -1 N 1 0 0 1 274 -150 2
Refer: 114 1622 N 1 0 0 1 274 -150 2
Refer: 107 1613 N 1 0 0 1 274 -185 2
Refer: 70 -1 N 1 0 0 1 237 617 2
Refer: 68 -1 N 1 0 0 1 237 617 2
Refer: 113 1648 N 1 0 0 1 237 617 2
Refer: 111 1617 N 1 0 0 1 237 661 2
Refer: 108 1614 N 1 0 0 1 237 642 2
Refer: 105 1611 N 1 0 0 1 237 662 2
Refer: 106 1612 N 1 0 0 1 237 658 2
Refer: 109 1615 N 1 0 0 1 237 660 2
Refer: 112 1618 N 1 0 0 1 237 665 2
Refer: 67 -1 N 1 0 0 1 237 617 2
Refer: 69 -1 N 1 0 0 1 237 617 2
Refer: 88 -1 N 1 0 0 1 237 617 2
Refer: 110 1616 N 1 0 0 1 274 -175 2
Refer: 71 -1 N 1 0 0 1 274 -150 2
Refer: 73 -1 N 1 0 0 1 274 -150 2
EndChar
StartChar: arAin.isol
Encoding: 65544 -1 8
Width: 656
VWidth: 34
GlyphClass: 2
Flags: HW
LayerCount: 3
Fore
SplineSet
536 -100 m 1
 536 -272 l 1
 248 -272 l 2
 175 -272 120 -209 120 -139 c 2
 120 40 l 2
 120 112 176 172 250 172 c 2
 536 172 l 1
 536 0 l 1
 272 0 l 1
 292 20 l 1
 292 -120 l 1
 272 -100 l 1
 536 -100 l 1
305 55 m 1
 217 151 153 278 240 373 c 0
 298 436 391 438 472 415 c 0
 492 410 512 403 530 395 c 1
 464 235 l 1
 448 242 436 246 426 249 c 0
 402 256 385 257 374 256 c 1
 379 239 396 209 431 171 c 1
 305 55 l 1
EndSplineSet
Layer: 2
Refer: 75 -1 N 1 0 0 1 398 -95 2
Refer: 73 -1 N 1 0 0 1 398 -95 2
Refer: 172 1622 N 1 0 0 1 398 -95 2
Refer: 165 1613 N 1 0 0 1 398 -130 2
Refer: 71 -1 N 1 0 0 1 333 553 2
Refer: 69 -1 N 1 0 0 1 333 553 2
Refer: 171 1648 N 1 0 0 1 333 553 2
Refer: 169 1617 N 1 0 0 1 333 597 2
Refer: 166 1614 N 1 0 0 1 333 578 2
Refer: 163 1611 N 1 0 0 1 333 598 2
Refer: 164 1612 N 1 0 0 1 333 594 2
Refer: 167 1615 N 1 0 0 1 333 596 2
Refer: 170 1618 N 1 0 0 1 333 601 2
Refer: 68 -1 N 1 0 0 1 333 553 2
Refer: 70 -1 N 1 0 0 1 333 553 2
Refer: 89 -1 N 1 0 0 1 333 553 2
Refer: 168 1616 N 1 0 0 1 398 -120 2
Refer: 72 -1 N 1 0 0 1 398 -95 2
Refer: 74 -1 N 1 0 0 1 398 -95 2
EndChar
StartChar: arAlef.fina.1
Encoding: 65557 -1 31
Width: 0
VWidth: 34
GlyphClass: 2
Flags: HW
LayerCount: 3
Back
SplineSet
361.557617188 624 m 5
 533.557617188 624 l 5
 533.557617188 138 l 2
 533.557617188 62 470.557617188 0 394.557617188 0 c 2
 61.5576171875 0 l 1
 61.5576171875 172 l 1
 381.557617188 172 l 1
 361.557617188 152 l 1
 361.557617188 624 l 5
202.557617188 289 m 1
 362.557617188 289 l 17
 351.557617188 196 285.778320312 149.291015625 192.557617188 124 c 1
 82.5576171875 124 l 1
 150.557617188 157 204.557617188 187 202.557617188 289 c 1
66 689.913085938 m 1
 231.115234375 738.086914062 l 1
 362.115234375 289.086914062 l 1
 197 240.913085938 l 1
 66 689.913085938 l 1
EndSplineSet
Fore
SplineSet
81 640 m 1
 246 688 l 1
 362 289 l 1
 197 241 l 1
 81 640 l 1
203 289 m 1
 363 289 l 17
 352 196 286 149 193 124 c 1
 83 124 l 1
 151 157 205 187 203 289 c 1
EndSplineSet
Layer: 2
Refer: 89 -1 N 1 0 0 1 120 738 2
Refer: 70 -1 N 1 0 0 1 120 738 2
Refer: 68 -1 N 1 0 0 1 120 738 2
Refer: 170 1618 N 1 0 0 1 120 786 2
Refer: 167 1615 N 1 0 0 1 120 781 2
Refer: 164 1612 N 1 0 0 1 120 779 2
Refer: 128 1620 N 1 0 0 1 120 738 2
Refer: 88 -1 N 1 0 0 1 120 738 2
Refer: 75 -1 N 1 0 0 1 100 -99 2
Refer: 73 -1 N 1 0 0 1 100 -99 2
Refer: 172 1622 N 1 0 0 1 100 -99 2
Refer: 165 1613 N 1 0 0 1 100 -134 2
Refer: 129 1621 N 1 0 0 1 100 -99 2
Refer: 168 1616 N 1 0 0 1 100 -124 2
Refer: 72 -1 N 1 0 0 1 100 -99 2
Refer: 74 -1 N 1 0 0 1 100 -99 2
Refer: 76 -1 N 1 0 0 1 120 738 2
Refer: 127 1619 N 1 0 0 1 120 738 2
Refer: 163 1611 N 1 0 0 1 120 783 2
Refer: 166 1614 N 1 0 0 1 120 763 2
Refer: 169 1617 N 1 0 0 1 120 782 2
Refer: 171 1648 N 1 0 0 1 120 738 2
Refer: 69 -1 N 1 0 0 1 120 738 2
Refer: 71 -1 N 1 0 0 1 120 738 2
EndChar
StartChar: arAlef.isol
Encoding: 65536 -1 0
Width: 292
VWidth: 34
GlyphClass: 2
Flags: HW
LayerCount: 3
Fore
SplineSet
60 624 m 1
 232 624 l 1
 232 193 l 2
 232 96 185 1 60 1 c 1
 60 624 l 1
EndSplineSet
Layer: 2
Refer: 89 -1 N 1 0 0 1 136 684 2
Refer: 70 -1 N 1 0 0 1 136 684 2
Refer: 68 -1 N 1 0 0 1 136 684 2
Refer: 127 1619 N 1 0 0 1 136 684 2
Refer: 76 -1 N 1 0 0 1 136 684 2
Refer: 170 1618 N 1 0 0 1 136 732 2
Refer: 167 1615 N 1 0 0 1 136 727 2
Refer: 164 1612 N 1 0 0 1 136 725 2
Refer: 75 -1 N 1 0 0 1 136 -49 2
Refer: 73 -1 N 1 0 0 1 136 -49 2
Refer: 129 1621 N 1 0 0 1 136 -49 2
Refer: 168 1616 N 1 0 0 1 136 -74 2
Refer: 165 1613 N 1 0 0 1 136 -84 2
Refer: 172 1622 N 1 0 0 1 136 -49 2
Refer: 72 -1 N 1 0 0 1 136 -49 2
Refer: 74 -1 N 1 0 0 1 136 -49 2
Refer: 163 1611 N 1 0 0 1 136 729 2
Refer: 166 1614 N 1 0 0 1 136 709 2
Refer: 169 1617 N 1 0 0 1 136 728 2
Refer: 171 1648 N 1 0 0 1 136 684 2
Refer: 88 -1 N 1 0 0 1 136 684 2
Refer: 128 1620 N 1 0 0 1 136 684 2
Refer: 69 -1 N 1 0 0 1 136 684 2
Refer: 71 -1 N 1 0 0 1 136 684 2
EndChar
StartChar: arBeh.init
Encoding: 65563 -1 37
Width: 488
VWidth: 34
GlyphClass: 2
Flags: HW
LayerCount: 3
Fore
SplineSet
256 410 m 1
 428 410 l 1
 428 138 l 2
 428 62 365 0 289 0 c 2
 0 0 l 1
 0 172 l 1
 276 172 l 1
 256 152 l 1
 256 410 l 1
EndSplineSet
Layer: 2
Refer: 89 -1 N 1 0 0 1 234 562 2
Refer: 70 -1 N 1 0 0 1 234 562 2
Refer: 68 -1 N 1 0 0 1 234 562 2
Refer: 113 1618 N 1 0 0 1 234 610 2
Refer: 110 1615 N 1 0 0 1 234 605 2
Refer: 107 1612 N 1 0 0 1 234 603 2
Refer: 93 1620 N 1 0 0 1 234 562 2
Refer: 88 -1 N 1 0 0 1 234 562 2
Refer: 75 -1 N 1 0 0 1 229 -160 2
Refer: 73 -1 N 1 0 0 1 229 -160 2
Refer: 115 1622 N 1 0 0 1 229 -160 2
Refer: 108 1613 N 1 0 0 1 229 -195 2
Refer: 111 1616 N 1 0 0 1 229 -185 2
Refer: 72 -1 N 1 0 0 1 229 -160 2
Refer: 74 -1 N 1 0 0 1 229 -160 2
Refer: 76 -1 N 1 0 0 1 234 562 2
Refer: 92 1619 N 1 0 0 1 234 562 2
Refer: 106 1611 N 1 0 0 1 234 607 2
Refer: 109 1614 N 1 0 0 1 234 587 2
Refer: 112 1617 N 1 0 0 1 234 606 2
Refer: 114 1648 N 1 0 0 1 234 562 2
Refer: 69 -1 N 1 0 0 1 234 562 2
Refer: 71 -1 N 1 0 0 1 234 562 2
EndChar
StartChar: arBeh.isol
Encoding: 65540 -1 4
Width: 974
VWidth: 34
GlyphClass: 2
Flags: HW
LayerCount: 3
Fore
SplineSet
682 333 m 1
 854 333 l 1
 854 138 l 2
 854 61 793 0 716 0 c 2
 324 0 l 2
 222 0 120 77 120 193 c 2
 120 333 l 1
 292 333 l 1
 292 193 l 2
 292 189 300 172 324 172 c 2
 702 172 l 1
 682 152 l 1
 682 333 l 1
EndSplineSet
Layer: 2
Refer: 75 -1 N 1 0 0 1 507 -150 2
Refer: 73 -1 N 1 0 0 1 507 -150 2
Refer: 172 1622 N 1 0 0 1 507 -150 2
Refer: 165 1613 N 1 0 0 1 507 -185 2
Refer: 71 -1 N 1 0 0 1 487 453 2
Refer: 69 -1 N 1 0 0 1 487 453 2
Refer: 171 1648 N 1 0 0 1 487 453 2
Refer: 169 1617 N 1 0 0 1 487 497 2
Refer: 166 1614 N 1 0 0 1 487 478 2
Refer: 163 1611 N 1 0 0 1 487 498 2
Refer: 164 1612 N 1 0 0 1 487 494 2
Refer: 167 1615 N 1 0 0 1 487 496 2
Refer: 170 1618 N 1 0 0 1 487 501 2
Refer: 68 -1 N 1 0 0 1 487 453 2
Refer: 70 -1 N 1 0 0 1 487 453 2
Refer: 89 -1 N 1 0 0 1 487 453 2
Refer: 168 1616 N 1 0 0 1 507 -175 2
Refer: 72 -1 N 1 0 0 1 507 -150 2
Refer: 74 -1 N 1 0 0 1 507 -150 2
EndChar
StartChar: arDal.isol
Encoding: 65538 -1 2
Width: 642
VWidth: 34
GlyphClass: 2
Flags: HW
LayerCount: 3
Fore
SplineSet
212 287 m 1
 288 441 l 1
 359 405 513 325 522 142 c 0
 526 62 464 0 384 0 c 2
 120 0 l 1
 120 172 l 1
 320 172 l 2
 343 172 335 190 328 200 c 0
 303 236 259 264 212 287 c 1
EndSplineSet
Layer: 2
Refer: 75 -1 N 1 0 0 1 264 -142 2
Refer: 73 -1 N 1 0 0 1 264 -142 2
Refer: 172 1622 N 1 0 0 1 264 -142 2
Refer: 165 1613 N 1 0 0 1 264 -177 2
Refer: 71 -1 N 1 0 0 1 258 600 2
Refer: 69 -1 N 1 0 0 1 258 600 2
Refer: 171 1648 N 1 0 0 1 258 600 2
Refer: 169 1617 N 1 0 0 1 258 644 2
Refer: 166 1614 N 1 0 0 1 258 625 2
Refer: 163 1611 N 1 0 0 1 258 645 2
Refer: 164 1612 N 1 0 0 1 258 641 2
Refer: 167 1615 N 1 0 0 1 258 643 2
Refer: 170 1618 N 1 0 0 1 258 648 2
Refer: 68 -1 N 1 0 0 1 258 600 2
Refer: 70 -1 N 1 0 0 1 258 600 2
Refer: 89 -1 N 1 0 0 1 258 600 2
Refer: 168 1616 N 1 0 0 1 264 -167 2
Refer: 72 -1 N 1 0 0 1 264 -142 2
Refer: 74 -1 N 1 0 0 1 264 -142 2
EndChar
StartChar: arFeh.fina
Encoding: 65574 -1 50
Width: 954
VWidth: 34
GlyphClass: 2
Flags: HW
LayerCount: 3
Fore
SplineSet
974 172 m 1
 974 0 l 1
 716 0 l 2
 625 0 524 0 460 106 c 0
 390 221 449 349 531 403 c 0
 621 461 773 457 846 341 c 0
 867 308 878 267 878 224 c 0
 878 -60 l 2
 878 -137 815 -200 737 -200 c 2
 245 -200 l 2
 148 -200 60 -127 60 -20 c 2
 60 132 l 1
 232 132 l 1
 232 -48 l 1
 212 -28 l 1
 726 -28 l 1
 706 -48 l 1
 706 214 l 0
 706 246 691 260 672 266 c 0
 652 273 630 266 617 252 c 0
 600 233 599 209 608 194 c 0
 622 170 629 172 716 172 c 2
 974 172 l 1
EndSplineSet
Layer: 2
Refer: 88 -1 N 1 0 0 1 649 559 2
Refer: 69 -1 N 1 0 0 1 649 559 2
Refer: 67 -1 N 1 0 0 1 649 559 2
Refer: 112 1618 N 1 0 0 1 649 607 2
Refer: 109 1615 N 1 0 0 1 649 602 2
Refer: 106 1612 N 1 0 0 1 649 600 2
Refer: 74 -1 N 1 0 0 1 499 -339 2
Refer: 72 -1 N 1 0 0 1 499 -339 2
Refer: 114 1622 N 1 0 0 1 499 -339 2
Refer: 107 1613 N 1 0 0 1 499 -374 2
Refer: 110 1616 N 1 0 0 1 499 -364 2
Refer: 71 -1 N 1 0 0 1 499 -339 2
Refer: 73 -1 N 1 0 0 1 499 -339 2
Refer: 105 1611 N 1 0 0 1 649 604 2
Refer: 108 1614 N 1 0 0 1 649 584 2
Refer: 111 1617 N 1 0 0 1 649 603 2
Refer: 113 1648 N 1 0 0 1 649 559 2
Refer: 68 -1 N 1 0 0 1 649 559 2
Refer: 70 -1 N 1 0 0 1 649 559 2
EndChar
StartChar: arFeh.init
Encoding: 65577 -1 54
Width: 553
VWidth: 34
GlyphClass: 2
Flags: HW
LayerCount: 3
Fore
SplineSet
0 172 m 1
 341 172 l 1
 321 152 l 1
 321 414 l 0
 321 446 306 460 287 466 c 0
 267 473 245 466 232 452 c 0
 215 433 214 409 223 394 c 0
 237 370 254 346 361 357 c 1
 361 220 l 1
 261 215 139 200 75 306 c 0
 5 421 64 549 146 603 c 0
 236 661 388 657 461 541 c 0
 482 508 493 467 493 424 c 0
 493 140 l 2
 493 63 430 0 352 0 c 2
 0 0 l 17
 0 172 l 1
EndSplineSet
Layer: 2
Refer: 75 -1 N 1 0 0 1 273 -160 2
Refer: 73 -1 N 1 0 0 1 273 -160 2
Refer: 172 1622 N 1 0 0 1 273 -160 2
Refer: 165 1613 N 1 0 0 1 273 -195 2
Refer: 71 -1 N 1 0 0 1 264 759 2
Refer: 69 -1 N 1 0 0 1 264 759 2
Refer: 171 1648 N 1 0 0 1 264 759 2
Refer: 169 1617 N 1 0 0 1 264 803 2
Refer: 166 1614 N 1 0 0 1 264 784 2
Refer: 163 1611 N 1 0 0 1 264 804 2
Refer: 164 1612 N 1 0 0 1 264 800 2
Refer: 167 1615 N 1 0 0 1 264 802 2
Refer: 170 1618 N 1 0 0 1 264 807 2
Refer: 68 -1 N 1 0 0 1 264 759 2
Refer: 70 -1 N 1 0 0 1 264 759 2
Refer: 89 -1 N 1 0 0 1 264 759 2
Refer: 168 1616 N 1 0 0 1 273 -185 2
Refer: 72 -1 N 1 0 0 1 273 -160 2
Refer: 74 -1 N 1 0 0 1 273 -160 2
EndChar
StartChar: arFeh.isol
Encoding: 65552 -1 25
Width: 1058
VWidth: 34
GlyphClass: 2
Flags: HW
LayerCount: 3
Fore
SplineSet
806 21 m 1
 706 16 584 1 520 107 c 0
 450 222 509 350 591 404 c 0
 681 462 833 458 906 342 c 0
 927 309 938 268 938 225 c 0
 938 -59 l 2
 938 -136 875 -199 797 -199 c 2
 305 -199 l 2
 208 -199 120 -126 120 -19 c 2
 120 133 l 1
 292 133 l 1
 292 -47 l 1
 272 -27 l 1
 786 -27 l 1
 766 -47 l 1
 766 215 l 0
 766 247 751 261 732 267 c 0
 712 274 690 267 677 253 c 0
 660 234 659 210 668 195 c 0
 682 171 699 147 806 158 c 1
 806 21 l 1
EndSplineSet
Layer: 2
Refer: 89 -1 N 1 0 0 1 709 559 2
Refer: 70 -1 N 1 0 0 1 709 559 2
Refer: 68 -1 N 1 0 0 1 709 559 2
Refer: 170 1618 N 1 0 0 1 709 607 2
Refer: 167 1615 N 1 0 0 1 709 602 2
Refer: 164 1612 N 1 0 0 1 709 600 2
Refer: 75 -1 N 1 0 0 1 559 -339 2
Refer: 73 -1 N 1 0 0 1 559 -339 2
Refer: 172 1622 N 1 0 0 1 559 -339 2
Refer: 165 1613 N 1 0 0 1 559 -374 2
Refer: 168 1616 N 1 0 0 1 559 -364 2
Refer: 72 -1 N 1 0 0 1 559 -339 2
Refer: 74 -1 N 1 0 0 1 559 -339 2
Refer: 163 1611 N 1 0 0 1 709 604 2
Refer: 166 1614 N 1 0 0 1 709 584 2
Refer: 169 1617 N 1 0 0 1 709 603 2
Refer: 171 1648 N 1 0 0 1 709 559 2
Refer: 69 -1 N 1 0 0 1 709 559 2
Refer: 71 -1 N 1 0 0 1 709 559 2
EndChar
StartChar: arGaf.above
Encoding: 65614 -1 154
Width: 0
VWidth: 0
GlyphClass: 4
Flags: HW
AnchorPoint: "arMarkAbove" -30 140 basechar 0
AnchorPoint: "arShartaAbove" 0 0 mark 0
LayerCount: 3
Back
SplineSet
555.676757812 739.96875 m 1
 560.32421875 567.998046875 l 1
 541.563476562 566.4375 367.747070312 527.981445312 279.00390625 483.341796875 c 1
 284.671875 509.329101562 l 1
 558.452148438 229.163085938 l 2
 643.323242188 142.3125 583.225585938 1 462 1 c 2
 0 1 l 1
 0 173 l 1
 393 173 l 1
 384.73046875 161 l 1
 155.547851562 394.836914062 l 2
 94.6962890625 456.923828125 89.376953125 570.391601562 169.987304688 618.892578125 c 0
 293.188476562 694.255859375 492.250976562 738.25390625 555.676757812 739.96875 c 1
EndSplineSet
Fore
SplineSet
-133 -75 m 1
 -186 11 l 1
 -73 81 131 126 183 127 c 1
 186 27 l 1
 164 26 -48 -23 -133 -75 c 1
EndSplineSet
Layer: 2
SplineSet
-133 -75 m 1
 -186 11 l 1
 -73 81 131 126 183 127 c 1
 186 27 l 1
 164 26 -48 -23 -133 -75 c 1
EndSplineSet
EndChar
StartChar: arGaf.isol
Encoding: 65612 -1 95
Width: 861
VWidth: 0
GlyphClass: 2
Flags: HW
LayerCount: 3
Fore
SplineSet
222 172 m 1
 366 0 l 1
 204 0 l 1
 60 172 l 1
 222 172 l 1
EndSplineSet
Refer: 61 -1 N 1 0 0 1 204 0 2
Layer: 2
Refer: 97 -1 N 1 0 0 1 575 768 2
Refer: 74 -1 N 1 0 0 1 423 -149 2
Refer: 72 -1 N 1 0 0 1 423 -149 2
Refer: 111 1616 N 1 0 0 1 423 -174 2
Refer: 89 -1 N 1 0 0 1 293 750 2
Refer: 70 -1 N 1 0 0 1 293 750 2
Refer: 68 -1 N 1 0 0 1 293 750 2
Refer: 113 1618 N 1 0 0 1 293 798 2
Refer: 110 1615 N 1 0 0 1 293 793 2
Refer: 107 1612 N 1 0 0 1 293 791 2
Refer: 106 1611 N 1 0 0 1 293 795 2
Refer: 109 1614 N 1 0 0 1 293 775 2
Refer: 112 1617 N 1 0 0 1 293 794 2
Refer: 114 1648 N 1 0 0 1 293 750 2
Refer: 69 -1 N 1 0 0 1 293 750 2
Refer: 71 -1 N 1 0 0 1 293 750 2
Refer: 108 1613 N 1 0 0 1 423 -184 2
Refer: 115 1622 N 1 0 0 1 423 -149 2
Refer: 73 -1 N 1 0 0 1 423 -149 2
Refer: 75 -1 N 1 0 0 1 423 -149 2
EndChar
StartChar: arHah.init
Encoding: 65569 -1 43
Width: 686
VWidth: 0
GlyphClass: 2
Flags: HW
LayerCount: 3
Fore
SplineSet
0 0 m 1
 0 172 l 1
 365 172 l 1
 361 156 l 1
 351 166 339 177 328 188 c 0
 296 219 262 253 238 270 c 0
 198 298 158 308 117 318 c 1
 157 486 l 1
 198 476 268 460 338 410 c 0
 402 364 450 308 486 276 c 0
 543 226 562 237 620 240 c 1
 626 160 l 0
 628 133 621 0 493 0 c 0
 0 0 l 1
EndSplineSet
Layer: 2
Refer: 75 -1 N 1 0 0 1 293 -161 2
Refer: 73 -1 N 1 0 0 1 293 -161 2
Refer: 115 1622 N 1 0 0 1 293 -161 2
Refer: 108 1613 N 1 0 0 1 293 -196 2
Refer: 71 -1 N 1 0 0 1 268 626 2
Refer: 69 -1 N 1 0 0 1 268 626 2
Refer: 114 1648 N 1 0 0 1 268 626 2
Refer: 112 1617 N 1 0 0 1 268 670 2
Refer: 109 1614 N 1 0 0 1 268 651 2
Refer: 106 1611 N 1 0 0 1 268 671 2
Refer: 107 1612 N 1 0 0 1 268 667 2
Refer: 110 1615 N 1 0 0 1 268 669 2
Refer: 113 1618 N 1 0 0 1 268 674 2
Refer: 68 -1 N 1 0 0 1 268 626 2
Refer: 70 -1 N 1 0 0 1 268 626 2
Refer: 89 -1 N 1 0 0 1 268 626 2
Refer: 111 1616 N 1 0 0 1 293 -186 2
Refer: 72 -1 N 1 0 0 1 293 -161 2
Refer: 74 -1 N 1 0 0 1 293 -161 2
EndChar
StartChar: arHah.isol
Encoding: 65537 -1 1
Width: 776
VWidth: 34
GlyphClass: 2
Flags: HW
LayerCount: 3
Fore
SplineSet
531 -190 m 1
 531 -362 l 1
 291 -362 l 2
 197 -362 120 -288 120 -195 c 2
 120 -10 l 2
 120 79 189 172 298 172 c 2
 392 172 l 1
 386 179 380 186 374 193 c 0
 338 237 309 277 239 303 c 1
 299 463 l 1
 436 411 500 309 527 279 c 0
 571 231 618 242 656 242 c 1
 656 156 l 0
 656 156 672 0 523 0 c 2
 272 0 l 1
 292 20 l 1
 292 -210 l 1
 272 -190 l 1
 531 -190 l 1
EndSplineSet
Layer: 2
Refer: 89 -1 N 1 0 0 1 408 606 2
Refer: 70 -1 N 1 0 0 1 408 606 2
Refer: 68 -1 N 1 0 0 1 408 606 2
Refer: 170 1618 N 1 0 0 1 408 654 2
Refer: 167 1615 N 1 0 0 1 408 649 2
Refer: 164 1612 N 1 0 0 1 408 647 2
Refer: 75 -1 N 1 0 0 1 398 -96 2
Refer: 73 -1 N 1 0 0 1 398 -96 2
Refer: 172 1622 N 1 0 0 1 398 -96 2
Refer: 165 1613 N 1 0 0 1 398 -131 2
Refer: 168 1616 N 1 0 0 1 398 -121 2
Refer: 72 -1 N 1 0 0 1 398 -96 2
Refer: 74 -1 N 1 0 0 1 398 -96 2
Refer: 163 1611 N 1 0 0 1 408 651 2
Refer: 166 1614 N 1 0 0 1 408 631 2
Refer: 169 1617 N 1 0 0 1 408 650 2
Refer: 171 1648 N 1 0 0 1 408 606 2
Refer: 69 -1 N 1 0 0 1 408 606 2
Refer: 71 -1 N 1 0 0 1 408 606 2
EndChar
StartChar: arHah.isol2
Encoding: 65558 -1 32
Width: 776
VWidth: 34
GlyphClass: 2
Flags: HW
AnchorPoint: "arMarkBelow" 398 -96 basechar 0
AnchorPoint: "arMarkAbove" 408 606 basechar 0
AnchorPoint: "arDotAbove" 408 606 basechar 0
AnchorPoint: "arDotBelow" 518 -135 basechar 0
LayerCount: 3
Fore
SplineSet
292 -362 m 1
 197 -362 120 -289 120 -195 c 2
 120 -10 l 2
 120 79 189 172 298 172 c 2
 392 172 l 1
 386 179 380 186 374 193 c 0
 338 237 309 277 239 303 c 1
 299 463 l 1
 436 411 500 309 527 279 c 0
 571 231 618 242 656 242 c 1
 656 156 l 0
 656 156 672 0 523 0 c 2
 272 0 l 1
 292 20 l 1
 292 -362 l 1
EndSplineSet
EndChar
StartChar: arHeh.fina2
Encoding: 65622 -1 105
Width: 478
VWidth: 34
GlyphClass: 2
Flags: HW
LayerCount: 3
Fore
SplineSet
292 -108 m 1
 120 -108 l 1
 120 34 l 2
 120 110 183 172 259 172 c 2
 498 172 l 1
 498 0 l 1
 272 0 l 1
 292 20 l 1
 292 -108 l 1
EndSplineSet
Layer: 2
Refer: 75 -1 N 1 0 0 1 299 -160 2
Refer: 73 -1 N 1 0 0 1 299 -160 2
Refer: 115 1622 N 1 0 0 1 299 -160 2
Refer: 108 1613 N 1 0 0 1 299 -195 2
Refer: 71 -1 N 1 0 0 1 254 382 2
Refer: 69 -1 N 1 0 0 1 254 382 2
Refer: 93 1620 N 1 0 0 1 254 382 2
Refer: 88 -1 N 1 0 0 1 254 382 2
Refer: 114 1648 N 1 0 0 1 254 382 2
Refer: 112 1617 N 1 0 0 1 254 426 2
Refer: 109 1614 N 1 0 0 1 254 407 2
Refer: 106 1611 N 1 0 0 1 254 427 2
Refer: 107 1612 N 1 0 0 1 254 423 2
Refer: 110 1615 N 1 0 0 1 254 425 2
Refer: 113 1618 N 1 0 0 1 254 430 2
Refer: 76 -1 N 1 0 0 1 254 382 2
Refer: 92 1619 N 1 0 0 1 254 382 2
Refer: 68 -1 N 1 0 0 1 254 382 2
Refer: 70 -1 N 1 0 0 1 254 382 2
Refer: 89 -1 N 1 0 0 1 254 382 2
Refer: 111 1616 N 1 0 0 1 299 -185 2
Refer: 72 -1 N 1 0 0 1 299 -160 2
Refer: 74 -1 N 1 0 0 1 299 -160 2
EndChar
StartChar: arHeh.init
Encoding: 65568 -1 42
Width: 782
VWidth: 34
GlyphClass: 2
Flags: HW
LayerCount: 3
Fore
SplineSet
269 450 m 1
 269 622 l 1
 584 622 726 319 722 137 c 0
 721 56 656 0 584 0 c 2
 0 0 l 1
 0 172 l 1
 568 172 l 1
 552 152 l 1
 541 294 436 450 269 450 c 1
323 0 m 1
 321 172 l 1
 324 172 327 173 326 176 c 24
 320 192 312 205 304 214 c 0
 288 231 274 236 265 237 c 0
 260 238 258 235 258 230 c 2
 258 136 l 1
 86 136 l 1
 86 233 l 2
 86 294 116 351 162 381 c 0
 262 447 392 397 462 290 c 0
 502 229 518 152 478 85 c 0
 443 26 380 1 323 0 c 1
EndSplineSet
Layer: 2
Refer: 89 -1 N 1 0 0 1 336 627 2
Refer: 70 -1 N 1 0 0 1 336 627 2
Refer: 68 -1 N 1 0 0 1 336 627 2
Refer: 113 1618 N 1 0 0 1 336 675 2
Refer: 110 1615 N 1 0 0 1 336 670 2
Refer: 107 1612 N 1 0 0 1 336 668 2
Refer: 75 -1 N 1 0 0 1 336 -150 2
Refer: 73 -1 N 1 0 0 1 336 -150 2
Refer: 115 1622 N 1 0 0 1 336 -150 2
Refer: 108 1613 N 1 0 0 1 336 -185 2
Refer: 111 1616 N 1 0 0 1 336 -175 2
Refer: 72 -1 N 1 0 0 1 336 -150 2
Refer: 74 -1 N 1 0 0 1 336 -150 2
Refer: 106 1611 N 1 0 0 1 336 672 2
Refer: 109 1614 N 1 0 0 1 336 652 2
Refer: 112 1617 N 1 0 0 1 336 671 2
Refer: 114 1648 N 1 0 0 1 336 627 2
Refer: 69 -1 N 1 0 0 1 336 627 2
Refer: 71 -1 N 1 0 0 1 336 627 2
EndChar
StartChar: arHeh.init2
Encoding: 65621 -1 104
Width: 498
VWidth: 34
GlyphClass: 2
Flags: HW
LayerCount: 3
Back
SplineSet
300 18 m 0
 247 -39 199.064341099 -122.194500597 186 -191 c 0
 170.999994904 -269.999991953 247 -327 318 -249 c 0
EndSplineSet
Fore
SplineSet
302 -151 m 1
 374 -207 l 1
 334 -269 232 -334 161 -279 c 0
 131 -256 115 -215 125 -160 c 0
 141 -73 198 25 265 97 c 1
 335 39 l 1
 296 -3 257 -71 247 -122 c 0
 237 -174 278 -177 302 -151 c 1
206 310 m 1
 378 310 l 1
 378 138 l 2
 378 62 315 0 239 0 c 2
 0 0 l 1
 0 172 l 1
 226 172 l 1
 206 152 l 1
 206 310 l 1
EndSplineSet
Layer: 2
Refer: 89 -1 N 1 0 0 1 184 562 2
Refer: 70 -1 N 1 0 0 1 184 562 2
Refer: 68 -1 N 1 0 0 1 184 562 2
Refer: 113 1618 N 1 0 0 1 184 610 2
Refer: 110 1615 N 1 0 0 1 184 605 2
Refer: 107 1612 N 1 0 0 1 184 603 2
Refer: 106 1611 N 1 0 0 1 184 607 2
Refer: 109 1614 N 1 0 0 1 184 587 2
Refer: 112 1617 N 1 0 0 1 184 606 2
Refer: 114 1648 N 1 0 0 1 184 562 2
Refer: 69 -1 N 1 0 0 1 184 562 2
Refer: 71 -1 N 1 0 0 1 184 562 2
EndChar
StartChar: arHeh.isol
Encoding: 65548 -1 12
Width: 569
VWidth: 34
GlyphClass: 2
Flags: HW
LayerCount: 3
Fore
SplineSet
224 154 m 1
 224 164 l 1
 224 172 l 1
 357 172 l 1
 337 152 l 1
 337 397 l 1
 509 397 l 1
 509 138 l 2
 509 62 447 0 371 0 c 2
 231 0 l 2
 186 0 144 17 113 45 c 0
 52 100 34 209 109 282 c 0
 185 356 224 376 260 461 c 1
 420 397 l 1
 374 284 329 250 224 154 c 1
EndSplineSet
Layer: 2
Refer: 89 -1 N 1 0 0 1 340 604 2
Refer: 70 -1 N 1 0 0 1 340 604 2
Refer: 68 -1 N 1 0 0 1 340 604 2
Refer: 113 1618 N 1 0 0 1 340 652 2
Refer: 110 1615 N 1 0 0 1 340 647 2
Refer: 107 1612 N 1 0 0 1 340 645 2
Refer: 93 1620 N 1 0 0 1 340 499 2
Refer: 88 -1 N 1 0 0 1 340 499 2
Refer: 75 -1 N 1 0 0 1 314 -161 2
Refer: 73 -1 N 1 0 0 1 314 -161 2
Refer: 115 1622 N 1 0 0 1 314 -161 2
Refer: 108 1613 N 1 0 0 1 314 -196 2
Refer: 111 1616 N 1 0 0 1 314 -186 2
Refer: 72 -1 N 1 0 0 1 314 -161 2
Refer: 74 -1 N 1 0 0 1 314 -161 2
Refer: 76 -1 N 1 0 0 1 340 499 2
Refer: 92 1619 N 1 0 0 1 340 499 2
Refer: 106 1611 N 1 0 0 1 340 649 2
Refer: 109 1614 N 1 0 0 1 340 629 2
Refer: 112 1617 N 1 0 0 1 340 648 2
Refer: 114 1648 N 1 0 0 1 340 604 2
Refer: 69 -1 N 1 0 0 1 340 604 2
Refer: 71 -1 N 1 0 0 1 340 604 2
EndChar
StartChar: arHeh.medi2
Encoding: 65555 -1 29
Width: 653
VWidth: 34
GlyphClass: 2
Flags: HW
LayerCount: 3
Fore
SplineSet
547 -206 m 1
 375 -206 l 1
 375 34 l 2
 375 110 437 172 513 172 c 2
 673 172 l 1
 673 0 l 1
 527 0 l 1
 547 20 l 1
 547 -206 l 1
402 -213 m 1
 234 -245 l 1
 218 -164 205 -194 149 -104 c 0
 124 -63 123 0 98 0 c 2
 0 0 l 1
 0 172 l 1
 142 172 l 2
 283 172 276 16 295 -14 c 0
 329 -66 378 -86 402 -213 c 1
EndSplineSet
Layer: 2
Refer: 75 -1 N 1 0 0 1 351 -402 2
Refer: 73 -1 N 1 0 0 1 351 -402 2
Refer: 115 1622 N 1 0 0 1 351 -402 2
Refer: 108 1613 N 1 0 0 1 351 -437 2
Refer: 71 -1 N 1 0 0 1 293 232 2
Refer: 69 -1 N 1 0 0 1 293 232 2
Refer: 114 1648 N 1 0 0 1 293 232 2
Refer: 112 1617 N 1 0 0 1 293 276 2
Refer: 109 1614 N 1 0 0 1 293 257 2
Refer: 106 1611 N 1 0 0 1 293 277 2
Refer: 107 1612 N 1 0 0 1 293 273 2
Refer: 110 1615 N 1 0 0 1 293 275 2
Refer: 113 1618 N 1 0 0 1 293 280 2
Refer: 68 -1 N 1 0 0 1 293 232 2
Refer: 70 -1 N 1 0 0 1 293 232 2
Refer: 89 -1 N 1 0 0 1 293 232 2
Refer: 111 1616 N 1 0 0 1 351 -427 2
Refer: 72 -1 N 1 0 0 1 351 -402 2
Refer: 74 -1 N 1 0 0 1 351 -402 2
EndChar
StartChar: arKaf.above
Encoding: 65596 -1 76
Width: 0
VWidth: -36
GlyphClass: 4
Flags: HW
AnchorPoint: "arMarkAboveDot" 0 310 basemark 0
LayerCount: 3
Fore
SplineSet
96 212 m 1
 96 112 l 1
 56 112 l 1
 67 88 l 2
 71 79 85 55 68 29 c 0
 53 6 21 1 14 1 c 2
 -96 1 l 1
 -96 101 l 1
 -49 101 l 1
 -60 123 l 2
 -60 123 -84 164 -57 192 c 0
 -47 202 -28 212 -4 212 c 2
 96 212 l 1
EndSplineSet
Layer: 2
SplineSet
96 212 m 1
 96 112 l 1
 56 112 l 1
 67 88 l 2
 71 79 85 55 68 29 c 0
 53 6 21 1 14 1 c 2
 -96 1 l 1
 -96 101 l 1
 -49 101 l 1
 -60 123 l 2
 -60 123 -84 164 -57 192 c 0
 -47 202 -28 212 -4 212 c 2
 96 212 l 1
EndSplineSet
EndChar
StartChar: arKaf.init
Encoding: 65570 -1 44
Width: 657
VWidth: 34
GlyphClass: 2
Flags: HW
LayerCount: 3
Fore
SplineSet
556 739 m 1
 560 567 l 1
 541 565 368 527 279 482 c 1
 285 508 l 1
 558 228 l 2
 643 141 583 0 462 0 c 2
 0 0 l 1
 0 172 l 1
 393 172 l 1
 385 160 l 1
 156 394 l 2
 95 456 89 569 170 618 c 0
 293 693 493 737 556 739 c 1
EndSplineSet
Layer: 2
Refer: 97 -1 N 1 0 0 1 371 767 2
Refer: 74 -1 N 1 0 0 1 249 -150 2
Refer: 72 -1 N 1 0 0 1 249 -150 2
Refer: 111 1616 N 1 0 0 1 249 -175 2
Refer: 89 -1 N 1 0 0 1 89 749 2
Refer: 70 -1 N 1 0 0 1 89 749 2
Refer: 68 -1 N 1 0 0 1 89 749 2
Refer: 113 1618 N 1 0 0 1 279 817 2
Refer: 110 1615 N 1 0 0 1 279 812 2
Refer: 107 1612 N 1 0 0 1 279 810 2
Refer: 106 1611 N 1 0 0 1 279 814 2
Refer: 109 1614 N 1 0 0 1 279 794 2
Refer: 112 1617 N 1 0 0 1 279 813 2
Refer: 114 1648 N 1 0 0 1 279 769 2
Refer: 69 -1 N 1 0 0 1 89 749 2
Refer: 71 -1 N 1 0 0 1 89 749 2
Refer: 108 1613 N 1 0 0 1 249 -185 2
Refer: 115 1622 N 1 0 0 1 249 -150 2
Refer: 73 -1 N 1 0 0 1 249 -150 2
Refer: 75 -1 N 1 0 0 1 249 -150 2
EndChar
StartChar: arKaf.isol
Encoding: 65546 -1 10
Width: 726
VWidth: 34
GlyphClass: 2
Flags: HW
LayerCount: 3
Fore
SplineSet
222 172 m 1
 366 0 l 1
 204 0 l 1
 60 172 l 1
 222 172 l 1
494 624 m 1
 666 624 l 1
 666 138 l 2
 666 62 603 0 527 0 c 2
 204 0 l 1
 204 172 l 1
 514 172 l 1
 494 152 l 1
 494 624 l 1
EndSplineSet
Layer: 2
Refer: 89 -1 N 1 0 0 1 573 673 2
Refer: 70 -1 N 1 0 0 1 573 673 2
Refer: 68 -1 N 1 0 0 1 573 673 2
Refer: 113 1618 N 1 0 0 1 573 721 2
Refer: 110 1615 N 1 0 0 1 573 716 2
Refer: 107 1612 N 1 0 0 1 573 714 2
Refer: 75 -1 N 1 0 0 1 362 -109 2
Refer: 73 -1 N 1 0 0 1 362 -109 2
Refer: 115 1622 N 1 0 0 1 362 -109 2
Refer: 108 1613 N 1 0 0 1 362 -144 2
Refer: 92 1619 N 1 0 0 1 300 311 2
Refer: 76 -1 N 1 0 0 1 300 311 2
Refer: 88 -1 N 1 0 0 1 300 311 2
Refer: 93 1620 N 1 0 0 1 300 311 2
Refer: 111 1616 N 1 0 0 1 362 -134 2
Refer: 72 -1 N 1 0 0 1 362 -109 2
Refer: 74 -1 N 1 0 0 1 362 -109 2
Refer: 106 1611 N 1 0 0 1 573 718 2
Refer: 109 1614 N 1 0 0 1 573 698 2
Refer: 112 1617 N 1 0 0 1 573 717 2
Refer: 114 1648 N 1 0 0 1 573 673 2
Refer: 69 -1 N 1 0 0 1 573 673 2
Refer: 71 -1 N 1 0 0 1 573 673 2
EndChar
StartChar: arLam.init.1
Encoding: 65556 -1 30
Width: 592
VWidth: 34
GlyphClass: 2
Flags: HW
LayerCount: 3
Back
SplineSet
361.557617188 692 m 1
 533.557617188 692 l 1
 533.557617188 138 l 2
 533.557617188 62 470.557617188 0 394.557617188 0 c 2
 61.5576171875 0 l 1
 61.5576171875 172 l 1
 381.557617188 172 l 1
 361.557617188 152 l 1
 361.557617188 692 l 1
202.557617188 289 m 1
 362.557617188 289 l 17
 351.557617188 196 285.778320312 149.291015625 192.557617188 124 c 1
 82.5576171875 124 l 1
 150.557617188 157 204.557617188 187 202.557617188 289 c 1
66 689.913085938 m 1
 231.115234375 738.086914062 l 1
 362.115234375 289.086914062 l 1
 197 240.913085938 l 1
 66 689.913085938 l 1
EndSplineSet
Fore
SplineSet
360 624 m 1
 532 624 l 1
 532 138 l 2
 532 62 469 0 393 0 c 2
 60 0 l 1
 60 172 l 1
 380 172 l 1
 360 152 l 1
 360 624 l 1
EndSplineSet
Layer: 2
Refer: 89 -1 N 1 0 0 1 449 710 2
Refer: 70 -1 N 1 0 0 1 449 710 2
Refer: 68 -1 N 1 0 0 1 449 710 2
Refer: 113 1618 N 1 0 0 1 449 758 2
Refer: 110 1615 N 1 0 0 1 449 753 2
Refer: 107 1612 N 1 0 0 1 449 751 2
Refer: 75 -1 N 1 0 0 1 449 -99 2
Refer: 73 -1 N 1 0 0 1 449 -99 2
Refer: 115 1622 N 1 0 0 1 449 -99 2
Refer: 108 1613 N 1 0 0 1 449 -134 2
Refer: 111 1616 N 1 0 0 1 449 -124 2
Refer: 72 -1 N 1 0 0 1 449 -99 2
Refer: 74 -1 N 1 0 0 1 449 -99 2
Refer: 106 1611 N 1 0 0 1 449 755 2
Refer: 109 1614 N 1 0 0 1 449 735 2
Refer: 112 1617 N 1 0 0 1 449 754 2
Refer: 114 1648 N 1 0 0 1 449 710 2
Refer: 69 -1 N 1 0 0 1 449 710 2
Refer: 71 -1 N 1 0 0 1 449 710 2
EndChar
StartChar: arLam.init
Encoding: 65561 -1 35
Width: 360
VWidth: 34
GlyphClass: 2
Flags: HW
LayerCount: 3
Fore
SplineSet
88 624 m 1
 260 624 l 1
 260 138 l 2
 260 62 197 0 121 0 c 2
 0 0 l 1
 0 172 l 1
 108 172 l 1
 88 152 l 1
 88 624 l 1
EndSplineSet
Layer: 2
Refer: 89 -1 N 1 0 0 1 175 724 2
Refer: 70 -1 N 1 0 0 1 175 724 2
Refer: 68 -1 N 1 0 0 1 175 724 2
Refer: 170 1618 N 1 0 0 1 175 772 2
Refer: 167 1615 N 1 0 0 1 175 767 2
Refer: 164 1612 N 1 0 0 1 175 765 2
Refer: 75 -1 N 1 0 0 1 145 -99 2
Refer: 73 -1 N 1 0 0 1 145 -99 2
Refer: 172 1622 N 1 0 0 1 145 -99 2
Refer: 165 1613 N 1 0 0 1 145 -134 2
Refer: 168 1616 N 1 0 0 1 145 -124 2
Refer: 72 -1 N 1 0 0 1 145 -99 2
Refer: 74 -1 N 1 0 0 1 145 -99 2
Refer: 163 1611 N 1 0 0 1 175 769 2
Refer: 166 1614 N 1 0 0 1 175 749 2
Refer: 169 1617 N 1 0 0 1 175 768 2
Refer: 171 1648 N 1 0 0 1 175 724 2
Refer: 69 -1 N 1 0 0 1 175 724 2
Refer: 71 -1 N 1 0 0 1 175 724 2
EndChar
StartChar: arLam.isol
Encoding: 65545 -1 9
Width: 780
VWidth: 34
GlyphClass: 2
Flags: HW
LayerCount: 3
Fore
SplineSet
488 624 m 1
 660 624 l 1
 660 -8 l 2
 660 -84 598 -148 520 -148 c 2
 261 -148 l 2
 185 -148 120 -86 120 -9 c 2
 120 180 l 1
 292 180 l 1
 292 4 l 1
 272 24 l 1
 508 24 l 1
 488 4 l 1
 488 624 l 1
EndSplineSet
Layer: 2
Refer: 89 -1 N 1 0 0 1 574 674 2
Refer: 70 -1 N 1 0 0 1 574 674 2
Refer: 68 -1 N 1 0 0 1 574 674 2
Refer: 170 1618 N 1 0 0 1 574 722 2
Refer: 167 1615 N 1 0 0 1 574 717 2
Refer: 164 1612 N 1 0 0 1 574 715 2
Refer: 75 -1 N 1 0 0 1 387 -258 2
Refer: 73 -1 N 1 0 0 1 387 -258 2
Refer: 172 1622 N 1 0 0 1 387 -258 2
Refer: 165 1613 N 1 0 0 1 387 -293 2
Refer: 168 1616 N 1 0 0 1 387 -283 2
Refer: 72 -1 N 1 0 0 1 387 -258 2
Refer: 74 -1 N 1 0 0 1 387 -258 2
Refer: 163 1611 N 1 0 0 1 574 719 2
Refer: 166 1614 N 1 0 0 1 574 699 2
Refer: 169 1617 N 1 0 0 1 574 718 2
Refer: 171 1648 N 1 0 0 1 574 674 2
Refer: 69 -1 N 1 0 0 1 574 674 2
Refer: 71 -1 N 1 0 0 1 574 674 2
EndChar
StartChar: arMeem.init
Encoding: 65610 -1 90
Width: 615
VWidth: 34
GlyphClass: 2
Flags: HW
LayerCount: 3
Fore
SplineSet
314 172 m 0
 381 172 383 194 383 194 c 0
 383 199 377 229 333 275 c 0
 323 286 310 286 301 285 c 0
 288 283 288 268 288 259 c 2
 288 168 l 2
 288 83 261 0 145 0 c 2
 0 0 l 1
 0 172 l 1
 136 172 l 1
 116 152 l 1
 116 271 l 2
 116 324 137 373 172 406 c 0
 251 481 380 475 458 393 c 0
 517 330 555 265 555 195 c 0
 555 50 411 0 314 0 c 0
 248 0 l 1
 248 172 l 1
 314 172 l 0
EndSplineSet
Layer: 2
Refer: 75 -1 N 1 0 0 1 309 -150 2
Refer: 73 -1 N 1 0 0 1 309 -150 2
Refer: 115 1622 N 1 0 0 1 309 -150 2
Refer: 108 1613 N 1 0 0 1 309 -185 2
Refer: 71 -1 N 1 0 0 1 307 608 2
Refer: 69 -1 N 1 0 0 1 307 608 2
Refer: 114 1648 N 1 0 0 1 307 608 2
Refer: 112 1617 N 1 0 0 1 307 652 2
Refer: 109 1614 N 1 0 0 1 307 633 2
Refer: 106 1611 N 1 0 0 1 307 653 2
Refer: 107 1612 N 1 0 0 1 307 649 2
Refer: 110 1615 N 1 0 0 1 307 651 2
Refer: 113 1618 N 1 0 0 1 307 656 2
Refer: 68 -1 N 1 0 0 1 307 608 2
Refer: 70 -1 N 1 0 0 1 307 608 2
Refer: 89 -1 N 1 0 0 1 307 608 2
Refer: 111 1616 N 1 0 0 1 309 -175 2
Refer: 72 -1 N 1 0 0 1 309 -150 2
Refer: 74 -1 N 1 0 0 1 309 -150 2
EndChar
StartChar: arMeem.isol
Encoding: 65547 -1 11
Width: 837
VWidth: 34
GlyphClass: 2
Flags: HW
LayerCount: 3
Fore
SplineSet
222 172 m 1
 366 0 l 1
 204 0 l 1
 60 172 l 1
 222 172 l 1
EndSplineSet
Refer: 90 -1 N 1 0 0 1 222 0 2
Layer: 2
Refer: 75 -1 N 1 0 0 1 531 -150 2
Refer: 73 -1 N 1 0 0 1 531 -150 2
Refer: 172 1622 N 1 0 0 1 531 -150 2
Refer: 165 1613 N 1 0 0 1 531 -185 2
Refer: 71 -1 N 1 0 0 1 529 608 2
Refer: 69 -1 N 1 0 0 1 529 608 2
Refer: 171 1648 N 1 0 0 1 529 608 2
Refer: 169 1617 N 1 0 0 1 529 652 2
Refer: 166 1614 N 1 0 0 1 529 633 2
Refer: 163 1611 N 1 0 0 1 529 653 2
Refer: 164 1612 N 1 0 0 1 529 649 2
Refer: 167 1615 N 1 0 0 1 529 651 2
Refer: 170 1618 N 1 0 0 1 529 656 2
Refer: 68 -1 N 1 0 0 1 529 608 2
Refer: 70 -1 N 1 0 0 1 529 608 2
Refer: 89 -1 N 1 0 0 1 529 608 2
Refer: 168 1616 N 1 0 0 1 531 -175 2
Refer: 72 -1 N 1 0 0 1 531 -150 2
Refer: 74 -1 N 1 0 0 1 531 -150 2
EndChar
StartChar: arNoon.fina
Encoding: 65564 -1 37
Width: 684
VWidth: 34
GlyphClass: 2
Flags: HW
LayerCount: 3
Fore
SplineSet
704 172 m 1
 704 0 l 1
 543 0 l 1
 543 172 l 1
 704 172 l 1
EndSplineSet
Refer: 24 -1 N 1 0 0 1 0 0 2
Colour: ff00ff
EndChar
StartChar: arNoon.isol
Encoding: 65551 -1 24
Width: 776
VWidth: 34
GlyphClass: 2
Flags: HW
LayerCount: 3
Fore
SplineSet
484 222 m 1
 656 222 l 1
 656 -49 l 2
 656 -125 596 -187 519 -187 c 2
 380 -187 l 2
 252 -187 120 -114 120 31 c 2
 120 221 l 1
 292 221 l 1
 292 32 l 2
 292 5 319 -15 380 -15 c 2
 524 -15 l 1
 484 -45 l 1
 484 222 l 1
EndSplineSet
Layer: 2
Refer: 75 -1 N 1 0 0 1 449 -297 2
Refer: 73 -1 N 1 0 0 1 449 -297 2
Refer: 172 1622 N 1 0 0 1 449 -297 2
Refer: 165 1613 N 1 0 0 1 449 -332 2
Refer: 71 -1 N 1 0 0 1 388 382 2
Refer: 69 -1 N 1 0 0 1 388 382 2
Refer: 171 1648 N 1 0 0 1 388 382 2
Refer: 169 1617 N 1 0 0 1 388 426 2
Refer: 166 1614 N 1 0 0 1 388 407 2
Refer: 163 1611 N 1 0 0 1 388 427 2
Refer: 164 1612 N 1 0 0 1 388 423 2
Refer: 167 1615 N 1 0 0 1 388 425 2
Refer: 170 1618 N 1 0 0 1 388 430 2
Refer: 68 -1 N 1 0 0 1 388 382 2
Refer: 70 -1 N 1 0 0 1 388 382 2
Refer: 89 -1 N 1 0 0 1 388 382 2
Refer: 168 1616 N 1 0 0 1 449 -322 2
Refer: 72 -1 N 1 0 0 1 449 -297 2
Refer: 74 -1 N 1 0 0 1 449 -297 2
EndChar
StartChar: arQaf.fina
Encoding: 65576 -1 53
Width: 944
VWidth: 34
GlyphClass: 2
Flags: HW
AnchorPoint: "arMarkBelow" 489 -338 basechar 0
AnchorPoint: "arDotBelow" 489 -338 basechar 0
AnchorPoint: "arMarkAbove" 639 560 basechar 0
AnchorPoint: "arDotAbove" 639 560 basechar 0
LayerCount: 3
Fore
SplineSet
964 172 m 1
 964 0 l 1
 706 0 l 2
 615 0 514 0 450 106 c 0
 380 221 439 349 521 403 c 0
 611 461 763 457 836 341 c 0
 857 308 868 267 868 224 c 0
 868 -60 l 2
 868 -137 805 -200 727 -200 c 2
 305 -200 l 2
 208 -200 120 -127 120 -20 c 2
 120 222 l 1
 292 222 l 1
 292 -48 l 1
 272 -28 l 1
 716 -28 l 1
 696 -48 l 1
 696 214 l 0
 696 246 681 260 662 266 c 0
 642 273 620 266 607 252 c 0
 590 233 589 209 598 194 c 0
 612 170 619 172 706 172 c 2
 964 172 l 1
EndSplineSet
EndChar
StartChar: arQaf.isol
Encoding: 65575 -1 52
Width: 988
VWidth: 34
GlyphClass: 2
Flags: HW
LayerCount: 3
Fore
SplineSet
736 21 m 1
 636 16 514 1 450 107 c 0
 380 222 439 350 521 404 c 0
 611 462 763 458 836 342 c 0
 857 309 868 268 868 225 c 0
 868 -59 l 2
 868 -136 805 -199 727 -199 c 2
 305 -199 l 2
 208 -199 120 -126 120 -19 c 2
 120 223 l 1
 292 223 l 1
 292 -47 l 1
 272 -27 l 1
 716 -27 l 1
 696 -47 l 1
 696 215 l 0
 696 247 681 261 662 267 c 0
 642 274 620 267 607 253 c 0
 590 234 589 210 598 195 c 0
 612 171 629 147 736 158 c 1
 736 21 l 1
EndSplineSet
Layer: 2
Refer: 89 -1 N 1 0 0 1 639 560 2
Refer: 70 -1 N 1 0 0 1 639 560 2
Refer: 68 -1 N 1 0 0 1 639 560 2
Refer: 170 1618 N 1 0 0 1 639 608 2
Refer: 167 1615 N 1 0 0 1 639 603 2
Refer: 164 1612 N 1 0 0 1 639 601 2
Refer: 75 -1 N 1 0 0 1 489 -338 2
Refer: 73 -1 N 1 0 0 1 489 -338 2
Refer: 172 1622 N 1 0 0 1 489 -338 2
Refer: 165 1613 N 1 0 0 1 489 -373 2
Refer: 168 1616 N 1 0 0 1 489 -363 2
Refer: 72 -1 N 1 0 0 1 489 -338 2
Refer: 74 -1 N 1 0 0 1 489 -338 2
Refer: 163 1611 N 1 0 0 1 639 605 2
Refer: 166 1614 N 1 0 0 1 639 585 2
Refer: 169 1617 N 1 0 0 1 639 604 2
Refer: 171 1648 N 1 0 0 1 639 560 2
Refer: 69 -1 N 1 0 0 1 639 560 2
Refer: 71 -1 N 1 0 0 1 639 560 2
EndChar
StartChar: arReh.isol
Encoding: 65539 -1 3
Width: 387
VWidth: 34
GlyphClass: 2
Flags: HW
LayerCount: 3
Fore
SplineSet
155 221 m 1
 327 221 l 1
 327 3 l 2
 327 -120 235 -230 102 -230 c 2
 0 -230 l 1
 0 -58 l 1
 102 -58 l 2
 131 -58 155 -38 155 3 c 2
 155 221 l 1
EndSplineSet
Layer: 2
Refer: 88 -1 N 1 0 0 1 241 441 2
Refer: 69 -1 N 1 0 0 1 241 441 2
Refer: 67 -1 N 1 0 0 1 241 441 2
Refer: 112 1618 N 1 0 0 1 241 489 2
Refer: 109 1615 N 1 0 0 1 241 484 2
Refer: 106 1612 N 1 0 0 1 241 482 2
Refer: 74 -1 N 1 0 0 1 123 -380 2
Refer: 72 -1 N 1 0 0 1 123 -380 2
Refer: 114 1622 N 1 0 0 1 123 -380 2
Refer: 107 1613 N 1 0 0 1 123 -415 2
Refer: 110 1616 N 1 0 0 1 123 -405 2
Refer: 71 -1 N 1 0 0 1 123 -380 2
Refer: 73 -1 N 1 0 0 1 123 -380 2
Refer: 105 1611 N 1 0 0 1 241 486 2
Refer: 108 1614 N 1 0 0 1 241 466 2
Refer: 111 1617 N 1 0 0 1 241 485 2
Refer: 113 1648 N 1 0 0 1 241 441 2
Refer: 68 -1 N 1 0 0 1 241 441 2
Refer: 70 -1 N 1 0 0 1 241 441 2
EndChar
StartChar: arSad.above
Encoding: 65608 -1 87
Width: 0
VWidth: 34
GlyphClass: 4
Flags: HW
LayerCount: 3
Fore
SplineSet
-98 86 m 17
 -56 144 7 252 106 216 c 0
 152 196 171 152 172 104 c 0
 172 70 l 2
 174 31 141 0 103 0 c 2
 -113 0 l 1
 -113 86 l 1
 96 86 l 1
 86 76 l 1
 86 102 l 0
 85 134 78 134 74 136 c 0
 52 143 6 87 -31 31 c 9
 -98 86 l 17
-74 -0 m 1
 -172 -0 l 1
 -172 86 l 1
 -74 86 l 1
 -74 -0 l 1
EndSplineSet
Layer: 2
SplineSet
-98 86 m 17
 -56 144 7 252 106 216 c 0
 152 196 171 152 172 104 c 0
 172 70 l 2
 174 31 141 0 103 0 c 2
 -113 0 l 1
 -113 86 l 1
 96 86 l 1
 86 76 l 1
 86 102 l 0
 85 134 78 134 74 136 c 0
 52 143 6 87 -31 31 c 9
 -98 86 l 17
-74 -0 m 1
 -172 -0 l 1
 -172 86 l 1
 -74 86 l 1
 -74 -0 l 1
EndSplineSet
Refer: 113 1648 N 1 0 0 1 0 240 2
Refer: 111 1617 N 1 0 0 1 0 284 2
Refer: 108 1614 N 1 0 0 1 0 265 2
Refer: 105 1611 N 1 0 0 1 0 285 2
Refer: 106 1612 N 1 0 0 1 0 281 2
Refer: 109 1615 N 1 0 0 1 0 283 2
Refer: 112 1618 N 1 0 0 1 0 288 2
EndChar
StartChar: arSad.head
Encoding: 65607 -1 87
Width: 0
VWidth: 34
GlyphClass: 2
Flags: HW
LayerCount: 3
Fore
SplineSet
-256 172 m 17
 -173 288 -46 506 152 433 c 0
 245 394 281 304 283 207 c 0
 285 141 l 2
 288 63 223 0 146 0 c 2
 -286 0 l 1
 -286 172 l 1
 132 172 l 1
 112 152 l 1
 113 203 l 0
 111 268 97 269 89 273 c 0
 46 287 -48 174 -122 62 c 9
 -256 172 l 17
EndSplineSet
Layer: 2
Refer: 89 -1 N 1 0 0 1 0 507 2
Refer: 70 -1 N 1 0 0 1 0 507 2
Refer: 68 -1 N 1 0 0 1 0 507 2
Refer: 170 1618 N 1 0 0 1 0 555 2
Refer: 167 1615 N 1 0 0 1 0 550 2
Refer: 164 1612 N 1 0 0 1 0 548 2
Refer: 75 -1 N 1 0 0 1 0 -200 2
Refer: 73 -1 N 1 0 0 1 0 -200 2
Refer: 172 1622 N 1 0 0 1 0 -200 2
Refer: 165 1613 N 1 0 0 1 0 -235 2
Refer: 168 1616 N 1 0 0 1 0 -225 2
Refer: 72 -1 N 1 0 0 1 0 -200 2
Refer: 74 -1 N 1 0 0 1 0 -200 2
Refer: 163 1611 N 1 0 0 1 0 552 2
Refer: 166 1614 N 1 0 0 1 0 532 2
Refer: 169 1617 N 1 0 0 1 0 551 2
Refer: 171 1648 N 1 0 0 1 0 507 2
Refer: 69 -1 N 1 0 0 1 0 507 2
Refer: 71 -1 N 1 0 0 1 0 507 2
EndChar
StartChar: arSad.init
Encoding: 65571 -1 45
Width: 719
VWidth: 34
GlyphClass: 2
Flags: HW
LayerCount: 3
Back
SplineSet
188.719726562 172 m 17
 272.11328125 287.846679688 398.805664062 506.325195312 596.611328125 433.000976562 c 0
 689.778320312 393.870117188 725.594726562 304.6484375 727.96875 207.331054688 c 0
 729.956054688 140.764648438 l 2
 732.654296875 62.4912109375 667.624023438 0 591 0 c 2
 0 0 l 1
 0 172 l 1
 577 172 l 1
 557 152 l 1
 557.03125 202.668945312 l 0
 555.4453125 267.698242188 541.6953125 269.040039062 533.416992188 272.950195312 c 0
 490.716796875 286.760742188 397 174 323 62 c 9
 188.719726562 172 l 17
52 311 m 1
 224 311 l 1
 224 92 l 1
 52 92 l 1
 52 311 l 1
EndSplineSet
Fore
SplineSet
246 0 m 1
 0 0 l 1
 0 172 l 1
 246 172 l 1
 246 0 l 1
102 311 m 1
 274 311 l 1
 274 92 l 1
 102 92 l 1
 102 311 l 1
EndSplineSet
Refer: 87 -1 N 1 0 0 1 434 0 2
Layer: 2
Refer: 75 -1 S 1 0 0 1 355 -149 2
Refer: 73 -1 S 1 0 0 1 355 -149 2
Refer: 172 1622 S 1 0 0 1 355 -149 2
Refer: 165 1613 S 1 0 0 1 355 -184 2
Refer: 71 -1 S 1 0 0 1 248 562 2
Refer: 69 -1 S 1 0 0 1 248 562 2
Refer: 171 1648 S 1 0 0 1 248 562 2
Refer: 169 1617 S 1 0 0 1 248 606 2
Refer: 166 1614 S 1 0 0 1 248 587 2
Refer: 163 1611 S 1 0 0 1 248 607 2
Refer: 164 1612 S 1 0 0 1 248 603 2
Refer: 167 1615 S 1 0 0 1 248 605 2
Refer: 170 1618 S 1 0 0 1 248 610 2
Refer: 68 -1 S 1 0 0 1 248 562 2
Refer: 70 -1 S 1 0 0 1 248 562 2
Refer: 89 -1 S 1 0 0 1 248 562 2
Refer: 168 1616 S 1 0 0 1 355 -174 2
Refer: 72 -1 S 1 0 0 1 355 -149 2
Refer: 74 -1 S 1 0 0 1 355 -149 2
EndChar
StartChar: arSad.isol
Encoding: 65542 -1 6
Width: 1166
VWidth: 34
GlyphClass: 2
Flags: HW
LayerCount: 3
Fore
SplineSet
429 311 m 1
 601 311 l 1
 601 -93 l 2
 601 -170 538 -231 462 -231 c 2
 195 -231 l 2
 116 -231 60 -163 60 -89 c 2
 60 219 l 1
 232 219 l 1
 232 -79 l 1
 212 -59 l 1
 449 -59 l 1
 429 -79 l 1
 429 311 l 1
EndSplineSet
Refer: 86 -1 N 1 0 0 1 821 0 2
Layer: 2
Refer: 88 -1 N 1 0 0 1 634 562 2
Refer: 69 -1 N 1 0 0 1 634 562 2
Refer: 67 -1 N 1 0 0 1 634 562 2
Refer: 112 1618 N 1 0 0 1 634 610 2
Refer: 109 1615 N 1 0 0 1 634 605 2
Refer: 106 1612 N 1 0 0 1 634 603 2
Refer: 74 -1 N 1 0 0 1 339 -361 2
Refer: 72 -1 N 1 0 0 1 339 -361 2
Refer: 114 1622 N 1 0 0 1 339 -361 2
Refer: 107 1613 N 1 0 0 1 339 -396 2
Refer: 110 1616 N 1 0 0 1 339 -386 2
Refer: 71 -1 N 1 0 0 1 339 -361 2
Refer: 73 -1 N 1 0 0 1 339 -361 2
Refer: 105 1611 N 1 0 0 1 634 607 2
Refer: 108 1614 N 1 0 0 1 634 587 2
Refer: 111 1617 N 1 0 0 1 634 606 2
Refer: 113 1648 N 1 0 0 1 634 562 2
Refer: 68 -1 N 1 0 0 1 634 562 2
Refer: 70 -1 N 1 0 0 1 634 562 2
EndChar
StartChar: arSeen.init
Encoding: 65562 -1 36
Width: 883
VWidth: 34
GlyphClass: 2
Flags: HW
LayerCount: 3
Fore
SplineSet
146 410 m 1
 318 410 l 1
 318 138 l 2
 318 62 255 0 179 0 c 2
 0 0 l 1
 0 172 l 1
 166 172 l 1
 146 152 l 1
 146 410 l 1
591 410 m 1
 763 410 l 1
 763 138 l 2
 763 61 699 0 623 0 c 2
 521 0 l 1
 521 172 l 1
 611 172 l 1
 591 152 l 1
 591 410 l 1
367 410 m 1
 539 410 l 1
 539 138 l 2
 539 62 476 0 400 0 c 2
 279 0 l 1
 279 172 l 1
 387 172 l 1
 367 152 l 1
 367 410 l 1
EndSplineSet
Layer: 2
Refer: 89 -1 N 1 0 0 1 450 561 2
Refer: 70 -1 N 1 0 0 1 450 561 2
Refer: 68 -1 N 1 0 0 1 450 561 2
Refer: 170 1618 N 1 0 0 1 450 609 2
Refer: 167 1615 N 1 0 0 1 450 604 2
Refer: 164 1612 N 1 0 0 1 450 602 2
Refer: 75 -1 N 1 0 0 1 405 -149 2
Refer: 73 -1 N 1 0 0 1 405 -149 2
Refer: 172 1622 N 1 0 0 1 405 -149 2
Refer: 165 1613 N 1 0 0 1 405 -184 2
Refer: 168 1616 N 1 0 0 1 405 -174 2
Refer: 72 -1 N 1 0 0 1 405 -149 2
Refer: 74 -1 N 1 0 0 1 405 -149 2
Refer: 163 1611 N 1 0 0 1 450 606 2
Refer: 166 1614 N 1 0 0 1 450 586 2
Refer: 169 1617 N 1 0 0 1 450 605 2
Refer: 171 1648 N 1 0 0 1 450 561 2
Refer: 69 -1 N 1 0 0 1 450 561 2
Refer: 71 -1 N 1 0 0 1 450 561 2
EndChar
StartChar: arSeen.isol
Encoding: 65541 -1 5
Width: 1108
VWidth: 34
GlyphClass: 2
Flags: HW
LayerCount: 3
Fore
SplineSet
429 412 m 1
 601 412 l 1
 601 -93 l 2
 601 -170 538 -231 462 -231 c 2
 195 -231 l 2
 116 -231 60 -163 60 -89 c 2
 60 219 l 1
 232 219 l 1
 232 -79 l 1
 212 -59 l 1
 449 -59 l 1
 429 -79 l 1
 429 412 l 1
876 410 m 1
 1048 410 l 1
 1048 138 l 2
 1048 61 984 0 908 0 c 2
 806 0 l 1
 806 172 l 1
 896 172 l 1
 876 152 l 1
 876 410 l 1
652 410 m 1
 824 410 l 1
 824 138 l 2
 824 62 761 0 685 0 c 2
 593 0 l 1
 593 172 l 1
 672 172 l 1
 652 152 l 1
 652 410 l 1
EndSplineSet
Layer: 2
Refer: 88 -1 N 1 0 0 1 734 562 2
Refer: 69 -1 N 1 0 0 1 734 562 2
Refer: 67 -1 N 1 0 0 1 734 562 2
Refer: 112 1618 N 1 0 0 1 734 610 2
Refer: 109 1615 N 1 0 0 1 734 605 2
Refer: 106 1612 N 1 0 0 1 734 603 2
Refer: 74 -1 N 1 0 0 1 339 -361 2
Refer: 72 -1 N 1 0 0 1 339 -361 2
Refer: 114 1622 N 1 0 0 1 339 -361 2
Refer: 107 1613 N 1 0 0 1 339 -396 2
Refer: 110 1616 N 1 0 0 1 339 -386 2
Refer: 71 -1 N 1 0 0 1 339 -361 2
Refer: 73 -1 N 1 0 0 1 339 -361 2
Refer: 105 1611 N 1 0 0 1 734 607 2
Refer: 108 1614 N 1 0 0 1 734 587 2
Refer: 111 1617 N 1 0 0 1 734 606 2
Refer: 113 1648 N 1 0 0 1 734 562 2
Refer: 68 -1 N 1 0 0 1 734 562 2
Refer: 70 -1 N 1 0 0 1 734 562 2
EndChar
StartChar: arTah.above
Encoding: 65609 -1 89
Width: 0
VWidth: 34
GlyphClass: 4
Flags: HW
AnchorPoint: "arMarkAboveDot" 0 370 basemark 0
LayerCount: 3
Fore
SplineSet
-73 0 m 1
 -168 0 l 1
 -168 86 l 1
 -73 86 l 1
 -73 0 l 1
-120 312 m 1
 -34 312 l 1
 -34 61 l 1
 -120 61 l 1
 -120 312 l 1
-77 86 m 17
 -35 144 28 252 127 216 c 0
 173 196 191 152 192 104 c 0
 194 70 l 2
 196 31 162 0 124 0 c 2
 -92 0 l 1
 -92 86 l 1
 117 86 l 1
 107 76 l 1
 108 102 l 0
 107 134 100 134 96 136 c 0
 74 143 27 87 -10 31 c 9
 -77 86 l 17
EndSplineSet
Layer: 2
SplineSet
-73 0 m 1
 -168 0 l 1
 -168 86 l 1
 -73 86 l 1
 -73 0 l 1
-120 312 m 1
 -34 312 l 1
 -34 61 l 1
 -120 61 l 1
 -120 312 l 1
-77 86 m 17
 -35 144 28 252 127 216 c 0
 173 196 191 152 192 104 c 0
 194 70 l 2
 196 31 162 0 124 0 c 2
 -92 0 l 1
 -92 86 l 1
 117 86 l 1
 107 76 l 1
 108 102 l 0
 107 134 100 134 96 136 c 0
 74 143 27 87 -10 31 c 9
 -77 86 l 17
EndSplineSet
Refer: 171 1648 N 1 0 0 1 0 370 2
Refer: 169 1617 N 1 0 0 1 0 414 2
Refer: 166 1614 N 1 0 0 1 0 395 2
Refer: 163 1611 N 1 0 0 1 0 415 2
Refer: 164 1612 N 1 0 0 1 0 411 2
Refer: 167 1615 N 1 0 0 1 0 413 2
Refer: 170 1618 N 1 0 0 1 0 418 2
EndChar
StartChar: arTah.isol
Encoding: 65543 -1 7
Width: 964
VWidth: 34
GlyphClass: 2
Flags: HW
LayerCount: 3
Back
SplineSet
252.719726562 172 m 17
 336.11328125 287.846679688 462.805664062 506.325195312 660.611328125 433.000976562 c 0
 753.778320312 393.870117188 789.594726562 304.6484375 791.96875 207.331054688 c 0
 793.956054688 140.764648438 l 2
 796.654296875 62.4912109375 731.624023438 0 655 0 c 2
 120 0 l 1
 120 172 l 1
 641 172 l 1
 621 152 l 1
 621.03125 202.668945312 l 0
 619.4453125 267.698242188 605.6953125 269.040039062 597.416992188 272.950195312 c 0
 554.716796875 286.760742188 461 174 387 62 c 9
 252.719726562 172 l 17
166 695 m 1
 338 695 l 1
 338 122 l 1
 166 122 l 1
 166 695 l 1
EndSplineSet
Fore
SplineSet
310 0 m 1
 120 0 l 1
 120 172 l 1
 310 172 l 1
 310 0 l 1
216 624 m 1
 388 624 l 1
 388 122 l 1
 216 122 l 1
 216 624 l 1
EndSplineSet
Refer: 87 -1 N 1 0 0 1 558 0 2
Layer: 2
Refer: 89 -1 N 1 0 0 1 604 562 2
Refer: 70 -1 N 1 0 0 1 604 562 2
Refer: 68 -1 N 1 0 0 1 604 562 2
Refer: 170 1618 N 1 0 0 1 604 610 2
Refer: 167 1615 N 1 0 0 1 604 605 2
Refer: 164 1612 N 1 0 0 1 604 603 2
Refer: 75 -1 N 1 0 0 1 459 -110 2
Refer: 73 -1 N 1 0 0 1 459 -110 2
Refer: 172 1622 N 1 0 0 1 459 -110 2
Refer: 165 1613 N 1 0 0 1 459 -145 2
Refer: 168 1616 N 1 0 0 1 459 -135 2
Refer: 72 -1 N 1 0 0 1 459 -110 2
Refer: 74 -1 N 1 0 0 1 459 -110 2
Refer: 163 1611 N 1 0 0 1 604 607 2
Refer: 166 1614 N 1 0 0 1 604 587 2
Refer: 169 1617 N 1 0 0 1 604 606 2
Refer: 171 1648 N 1 0 0 1 604 562 2
Refer: 69 -1 N 1 0 0 1 604 562 2
Refer: 71 -1 N 1 0 0 1 604 562 2
EndChar
StartChar: arWaw.fina
Encoding: 65559 -1 33
Width: 559
VWidth: 34
GlyphClass: 2
Flags: HW
LayerCount: 3
Fore
SplineSet
579 172 m 1
 579 0 l 1
 414 0 l 1
 414 172 l 1
 579 172 l 1
EndSplineSet
Refer: 13 -1 N 1 0 0 1 0 0 2
Colour: ff00ff
EndChar
StartChar: arWaw.isol
Encoding: 65549 -1 13
Width: 516
VWidth: 34
GlyphClass: 2
Flags: HW
LayerCount: 3
Fore
SplineSet
284 267 m 2
 284 274 281 273 275 272 c 0
 249 269 205 244 194 195 c 0
 191 184 193 172 210 172 c 2
 338 172 l 1
 338 0 l 1
 210 0 l 2
 101 0 14 88 20 195 c 0
 34 353 164 444 279 444 c 0
 377 444 456 368 456 267 c 2
 456 3 l 2
 456 -110 371 -229 232 -229 c 2
 39 -229 l 1
 39 -57 l 1
 232 -57 l 2
 258 -57 284 -34 284 0 c 2
 284 267 l 2
EndSplineSet
Layer: 2
Refer: 89 -1 N 1 0 0 1 283 554 2
Refer: 70 -1 N 1 0 0 1 283 554 2
Refer: 68 -1 N 1 0 0 1 283 554 2
Refer: 170 1618 N 1 0 0 1 283 602 2
Refer: 167 1615 N 1 0 0 1 283 597 2
Refer: 164 1612 N 1 0 0 1 283 595 2
Refer: 128 1620 N 1 0 0 1 283 554 2
Refer: 88 -1 N 1 0 0 1 283 554 2
Refer: 75 -1 N 1 0 0 1 219 -359 2
Refer: 73 -1 N 1 0 0 1 219 -359 2
Refer: 172 1622 N 1 0 0 1 219 -359 2
Refer: 165 1613 N 1 0 0 1 219 -394 2
Refer: 168 1616 N 1 0 0 1 219 -384 2
Refer: 72 -1 N 1 0 0 1 219 -359 2
Refer: 74 -1 N 1 0 0 1 219 -359 2
Refer: 76 -1 N 1 0 0 1 283 554 2
Refer: 127 1619 N 1 0 0 1 283 554 2
Refer: 163 1611 N 1 0 0 1 283 599 2
Refer: 166 1614 N 1 0 0 1 283 579 2
Refer: 169 1617 N 1 0 0 1 283 598 2
Refer: 171 1648 N 1 0 0 1 283 554 2
Refer: 69 -1 N 1 0 0 1 283 554 2
Refer: 71 -1 N 1 0 0 1 283 554 2
EndChar
StartChar: arYeh.fina.alt1
Encoding: 65565 -1 39
Width: 724
VWidth: 34
GlyphClass: 2
Flags: HW
LayerCount: 3
Fore
SplineSet
744 172 m 1
 744 0 l 1
 471 0 l 1
 471 172 l 1
 744 172 l 1
482 91 m 1
 654 91 l 1
 654 -52 l 2
 654 -124 598 -188 521 -188 c 2
 384 -188 l 2
 258 -188 120 -119 120 37 c 2
 120 219 l 1
 292 219 l 1
 292 37 l 2
 292 7 326 -16 384 -16 c 2
 502 -16 l 1
 482 -36 l 1
 482 91 l 1
EndSplineSet
Layer: 2
Refer: 75 -1 N 1 0 0 1 409 -341 2
Refer: 73 -1 N 1 0 0 1 409 -341 2
Refer: 172 1622 N 1 0 0 1 409 -341 2
Refer: 165 1613 N 1 0 0 1 409 -376 2
Refer: 127 1619 N 1 0 0 1 337 305 2
Refer: 76 -1 N 1 0 0 1 337 305 2
Refer: 71 -1 N 1 0 0 1 337 305 2
Refer: 69 -1 N 1 0 0 1 337 305 2
Refer: 171 1648 N 1 0 0 1 337 305 2
Refer: 169 1617 N 1 0 0 1 337 349 2
Refer: 166 1614 N 1 0 0 1 337 330 2
Refer: 163 1611 N 1 0 0 1 337 350 2
Refer: 164 1612 N 1 0 0 1 337 346 2
Refer: 167 1615 N 1 0 0 1 337 348 2
Refer: 170 1618 N 1 0 0 1 337 353 2
Refer: 68 -1 N 1 0 0 1 337 305 2
Refer: 70 -1 N 1 0 0 1 337 305 2
Refer: 89 -1 N 1 0 0 1 337 305 2
Refer: 88 -1 N 1 0 0 1 337 305 2
Refer: 128 1620 N 1 0 0 1 337 305 2
Refer: 168 1616 N 1 0 0 1 409 -366 2
Refer: 72 -1 N 1 0 0 1 409 -341 2
Refer: 74 -1 N 1 0 0 1 409 -341 2
EndChar
StartChar: arYeh.fina.alt2
Encoding: 65566 -1 40
Width: 858
VWidth: 34
GlyphClass: 2
Flags: HW
LayerCount: 3
Fore
SplineSet
878 172 m 1
 878 0 l 1
 747 0 l 2
 673 0 618 55 614 128 c 2
 610 217 l 1
 626 207 l 1
 595 195 542 155 524 142 c 1
 527 164 l 1
 629 48 l 2
 709 -43 637 -163 527 -163 c 2
 262 -163 l 2
 136 -164 60 -58 60 47 c 2
 60 250 l 1
 232 250 l 1
 232 47 l 2
 232 16 246 9 260 9 c 2
 454 9 l 1
 446 -5 l 1
 390 59 l 2
 333 124 337 202 393 254 c 0
 432 292 481 323 523 347 c 0
 621 404 723 364 762 292 c 0
 782 256 784 222 784 152 c 1
 764 172 l 1
 878 172 l 1
EndSplineSet
Layer: 2
Refer: 75 -1 N 1 0 0 1 349 -309 2
Refer: 73 -1 N 1 0 0 1 349 -309 2
Refer: 115 1622 N 1 0 0 1 349 -309 2
Refer: 108 1613 N 1 0 0 1 349 -344 2
Refer: 71 -1 N 1 0 0 1 277 337 2
Refer: 69 -1 N 1 0 0 1 277 337 2
Refer: 93 1620 N 1 0 0 1 277 337 2
Refer: 88 -1 N 1 0 0 1 277 337 2
Refer: 114 1648 N 1 0 0 1 277 337 2
Refer: 112 1617 N 1 0 0 1 277 381 2
Refer: 109 1614 N 1 0 0 1 277 362 2
Refer: 106 1611 N 1 0 0 1 277 382 2
Refer: 107 1612 N 1 0 0 1 277 378 2
Refer: 110 1615 N 1 0 0 1 277 380 2
Refer: 113 1618 N 1 0 0 1 277 385 2
Refer: 76 -1 N 1 0 0 1 277 337 2
Refer: 92 1619 N 1 0 0 1 277 337 2
Refer: 68 -1 N 1 0 0 1 277 337 2
Refer: 70 -1 N 1 0 0 1 277 337 2
Refer: 89 -1 N 1 0 0 1 277 337 2
Refer: 111 1616 N 1 0 0 1 349 -334 2
Refer: 72 -1 N 1 0 0 1 349 -309 2
Refer: 74 -1 N 1 0 0 1 349 -309 2
EndChar
StartChar: arYeh.fina2
Encoding: 65573 -1 47
Width: 831
VWidth: 34
GlyphClass: 2
Flags: HW
LayerCount: 3
Fore
SplineSet
812 -104 m 1
 812 -276 l 1
 374 -276 l 2
 250 -276 152 -218 126 -121 c 0
 98 -16 169 98 275 122 c 0
 317 132 326 157 345 191 c 0
 378 250 438 299 522 300 c 0
 593 301 662 263 698 194 c 0
 710 171 727 172 758 172 c 2
 851 172 l 1
 851 0 l 1
 758 0 l 2
 651 0 586 37 546 114 c 0
 540 125 532 130 522 128 c 0
 509 126 502 120 493 105 c 0
 490 100 456 -8 319 -44 c 0
 295 -50 290 -70 292 -77 c 0
 292 -77 297 -104 374 -104 c 2
 812 -104 l 1
EndSplineSet
Layer: 2
Refer: 75 -1 N 1 0 0 1 544 -371 2
Refer: 73 -1 N 1 0 0 1 544 -371 2
Refer: 172 1622 N 1 0 0 1 544 -371 2
Refer: 165 1613 N 1 0 0 1 544 -406 2
Refer: 127 1619 N 1 0 0 1 484 334 2
Refer: 76 -1 N 1 0 0 1 484 334 2
Refer: 71 -1 N 1 0 0 1 484 334 2
Refer: 69 -1 N 1 0 0 1 484 334 2
Refer: 171 1648 N 1 0 0 1 484 334 2
Refer: 169 1617 N 1 0 0 1 484 378 2
Refer: 166 1614 N 1 0 0 1 484 359 2
Refer: 163 1611 N 1 0 0 1 484 379 2
Refer: 164 1612 N 1 0 0 1 484 375 2
Refer: 167 1615 N 1 0 0 1 484 377 2
Refer: 170 1618 N 1 0 0 1 484 382 2
Refer: 68 -1 N 1 0 0 1 484 334 2
Refer: 70 -1 N 1 0 0 1 484 334 2
Refer: 89 -1 N 1 0 0 1 484 334 2
Refer: 88 -1 N 1 0 0 1 484 334 2
Refer: 128 1620 N 1 0 0 1 484 334 2
Refer: 168 1616 N 1 0 0 1 544 -396 2
Refer: 72 -1 N 1 0 0 1 544 -371 2
Refer: 74 -1 N 1 0 0 1 544 -371 2
EndChar
StartChar: arYeh.isol
Encoding: 65550 -1 14
Width: 834
VWidth: 34
GlyphClass: 2
Flags: HW
AnchorPoint: "arMarkAbove" 337 330 basechar 0
AnchorPoint: "arHamzaAbove" 337 330 basechar 0
AnchorPoint: "arDotAbove" 337 330 basechar 0
AnchorPoint: "arMarkBelow" 459 -366 basechar 0
AnchorPoint: "arDotBelow" 459 -366 basechar 0
LayerCount: 3
Fore
SplineSet
714 232 m 1
 714 60 l 1
 606 60 l 1
 613 77 l 1
 684 -9 l 2
 759 -100 687 -214 577 -214 c 2
 347 -214 l 2
 260 -214 120 -159 120 -3 c 2
 120 223 l 1
 292 223 l 1
 292 -3 l 2
 292 -29 306 -42 347 -42 c 2
 512 -42 l 1
 498 -54 l 1
 443 13 l 2
 362 112 431 232 546 232 c 2
 714 232 l 1
EndSplineSet
EndChar
StartChar: arYeh.isol2
Encoding: 65553 -1 26
Width: 1119
VWidth: 34
GlyphClass: 2
Flags: HW
LayerCount: 3
Fore
SplineSet
703 327 m 1
 611 181 l 1
 563 211 521 221 490 178 c 0
 485 169 449 68 319 34 c 0
 294 28 291 8 293 2 c 0
 293 2 296 -25 374 -25 c 0
 1000 -25 l 1
 1000 -197 l 1
 374 -197 l 0
 250 -197 152 -139 126 -42 c 0
 98 63 165 171 275 200 c 0
 351 220 309 271 414 342 c 0
 523 415 653 358 703 327 c 1
EndSplineSet
Layer: 2
Refer: 75 -1 N 1 0 0 1 544 -297 2
Refer: 73 -1 N 1 0 0 1 544 -297 2
Refer: 172 1622 N 1 0 0 1 544 -297 2
Refer: 165 1613 N 1 0 0 1 544 -332 2
Refer: 71 -1 N 1 0 0 1 484 408 2
Refer: 69 -1 N 1 0 0 1 484 408 2
Refer: 128 1620 N 1 0 0 1 484 408 2
Refer: 88 -1 N 1 0 0 1 484 408 2
Refer: 171 1648 N 1 0 0 1 484 408 2
Refer: 169 1617 N 1 0 0 1 484 452 2
Refer: 166 1614 N 1 0 0 1 484 433 2
Refer: 163 1611 N 1 0 0 1 484 453 2
Refer: 164 1612 N 1 0 0 1 484 449 2
Refer: 167 1615 N 1 0 0 1 484 451 2
Refer: 170 1618 N 1 0 0 1 484 456 2
Refer: 76 -1 N 1 0 0 1 484 408 2
Refer: 127 1619 N 1 0 0 1 484 408 2
Refer: 68 -1 N 1 0 0 1 484 408 2
Refer: 70 -1 N 1 0 0 1 484 408 2
Refer: 89 -1 N 1 0 0 1 484 408 2
Refer: 168 1616 N 1 0 0 1 544 -322 2
Refer: 72 -1 N 1 0 0 1 544 -297 2
Refer: 74 -1 N 1 0 0 1 544 -297 2
EndChar
StartChar: parenleft.ar
Encoding: 40 -1 49
Width: 559
VWidth: 34
GlyphClass: 2
Flags: HW
LayerCount: 3
Fore
SplineSet
509.12890625 -211.228515625 m 1
 361.07421875 -298.771484375 l 1
 129.731445312 92.4853515625 136.756835938 479.100585938 359.508789062 847.498046875 c 1
 506.694335938 758.501953125 l 1
 313.446289062 438.899414062 306.471679688 131.514648438 509.12890625 -211.228515625 c 1
EndSplineSet
EndChar
